<svg viewBox="0 0 92 78">
<path fill-rule="evenodd" clip-rule="evenodd" d="M33.4531 53.1229C34.0724 53.045 34.4831 52.7651 34.8748 52.3236C35.3345 51.8049 35.6166 51.2023 35.855 50.57C35.9631 50.2831 36.0494 49.987 36.1284 49.69C36.297 49.0573 36.7579 48.8109 37.3156 49.1444C37.5303 49.2729 37.6574 49.587 37.769 49.841C38.0355 50.4477 38.0314 51.0519 37.7118 51.6561C37.4073 52.2318 37.2227 52.8886 36.8395 53.4003C36.2404 54.2008 35.4667 54.792 34.3924 54.9038C33.8685 54.9583 33.3484 55.1435 32.852 55.3357C32.4363 55.4972 32.3749 56.3107 32.6532 56.6584C33.1729 57.3082 33.7895 57.8358 34.6099 58.1306C35.1543 58.3269 35.6662 58.5349 36.1651 58.4133C36.9315 58.4133 37.6109 58.4076 38.29 58.4178C38.4383 58.42 38.586 58.477 38.7336 58.5109C39.1826 58.6132 39.4842 59.0163 39.4621 59.483C39.451 59.7177 38.9973 60.1046 38.6587 60.1255C37.733 60.1828 36.806 60.2541 35.8796 60.2573C34.744 60.2614 33.7575 59.7943 32.8388 59.1603C32.6244 59.0128 32.3911 58.8912 32.1609 58.7674C31.4536 58.3867 31.1485 57.7145 30.8751 57.0143C30.3502 55.6714 30.9756 54.2331 31.9165 53.6869C32.3844 53.4155 32.9238 53.1894 33.4531 53.1229ZM19.2207 43.3881C18.9877 42.8447 19.1046 42.3194 19.2776 41.7893C19.355 41.5524 19.4072 41.3051 19.454 41.0594C19.5302 40.6594 19.7834 40.369 20.0601 40.3855C20.3551 40.4036 20.6102 40.7395 20.6924 41.1012C20.9551 42.2548 21.197 43.4163 21.5407 44.5458C21.7272 45.1595 22.1749 45.6206 22.7076 46.0477C23.5195 46.6988 24.4819 47.036 25.3514 47.5557C25.8497 47.8537 26.4178 48.0934 26.9847 48.2045C27.7798 48.36 28.5488 48.1643 29.2924 47.7906C30.5134 47.1773 31.3228 46.1595 32.1318 45.119C32.4227 44.7444 32.7572 44.3884 33.1274 44.0949C33.4768 43.8178 34.0317 43.859 34.3462 44.207C34.492 44.3691 34.4733 44.7257 34.448 44.9863C34.393 45.5591 34.0674 46.0221 33.7168 46.4508C33.3159 46.9414 32.8773 47.4008 32.4568 47.8755C31.6766 48.7565 30.7502 49.4499 29.6462 49.8448C29.0085 50.0735 28.3176 50.26 27.6499 50.2631C27.1561 50.2653 26.6009 50.3331 26.108 49.9927C25.8326 49.8027 25.4168 49.8284 25.0785 49.7147C24.4443 49.5009 23.7791 49.3743 23.2315 48.9271C22.9179 48.6716 22.5303 48.5006 22.1641 48.3153C21.4917 47.9746 20.9836 47.4765 20.5391 46.8638C19.8868 45.9651 19.7237 44.8764 19.2757 43.9017C19.2409 43.8267 19.2434 43.7342 19.2289 43.6493C19.2422 43.6471 19.2558 43.6446 19.269 43.6421C19.2539 43.5572 19.2539 43.4657 19.2207 43.3881ZM55.6842 48.2403C55.5312 48.8825 55.352 49.5243 55.1095 50.1368C54.9466 50.5481 54.664 50.9135 54.4234 51.2916C53.6121 52.5675 52.4211 53.4174 51.1407 54.1444C50.8492 54.3097 50.4559 54.3072 50.1055 54.3544C49.7274 54.405 49.3338 54.4966 48.9664 54.4405C48.2914 54.3376 47.6376 54.0659 46.9619 54.001C46.1766 53.9256 45.5164 53.5307 44.8108 53.2777C44.2208 53.0662 43.7108 52.5909 43.2129 52.1748C42.8088 51.8369 42.4538 51.4319 42.1196 51.0221C41.9346 50.7951 41.8372 50.4965 41.7022 50.2292C41.6798 50.1846 41.6716 50.1323 41.6504 50.0867C41.4164 49.5943 41.1436 49.1155 40.9593 48.6048C40.8394 48.2716 40.847 47.892 40.8069 47.599C40.8821 46.9293 40.9321 46.328 41.0222 45.7326C41.1025 45.2035 41.8451 44.738 42.2397 45.011C42.5043 45.1943 42.702 45.5556 42.7993 45.8767C42.8831 46.1541 42.744 46.4914 42.7769 46.7941C42.8038 47.0414 42.947 47.2748 43.0263 47.518C43.2859 48.3156 43.6394 49.0706 44.1313 49.747C44.315 49.9993 44.7039 50.1241 44.8345 50.3888C45.0865 50.899 45.6451 50.8733 46.0103 51.1868C46.3505 51.4791 46.8601 51.5896 47.31 51.7331C47.8304 51.899 48.3806 51.975 48.8924 52.1602C49.6019 52.4167 50.2864 52.3236 50.9089 52.0016C51.5314 51.6799 52.2121 51.3303 52.6421 50.8075C53.3813 49.9072 54.0996 48.9566 54.4904 47.8223C54.6238 47.4344 55.1904 47.2114 55.5537 47.4037C55.9615 47.6193 55.7481 47.9718 55.6842 48.2403ZM53.8802 61.5655C53.8214 62.2602 53.4126 62.7713 52.9247 63.2238C52.2267 63.8704 51.5611 64.5623 50.8077 65.1374C49.9266 65.8094 49.1286 66.5804 48.0957 67.0792C47.3309 67.4481 46.5386 67.7119 45.7633 68.0349C45.3928 68.1891 45.0396 68.3873 44.6669 68.5358C44.4626 68.6178 44.2356 68.6593 44.0153 68.6808C42.9273 68.7888 41.8435 68.8414 40.7471 68.7011C39.927 68.5957 39.0894 68.633 38.2608 68.59C37.465 68.5479 36.6648 68.5247 35.8766 68.4183C34.923 68.2898 33.9862 68.0168 33.0311 67.9262C32.1048 67.8388 31.2426 67.5462 30.3561 67.324C29.6931 67.1574 29.0114 67.0529 28.3649 66.8391C27.9472 66.7008 27.5751 66.4202 27.1878 66.1935C26.7768 65.9534 26.3756 65.6954 25.9633 65.4572C25.4543 65.1634 24.9269 64.8999 24.4286 64.5886C24.1065 64.3879 23.8254 64.1219 23.5209 63.8913C22.8864 63.4113 22.2468 62.9379 21.6135 62.4553C21.5076 62.3745 21.4213 62.2666 21.3309 62.1674C20.4968 61.2564 19.6593 60.3485 19.0659 59.2485C18.8961 58.9343 18.6207 58.6661 18.5056 58.3371C18.2075 57.4862 17.9716 56.6129 17.7111 55.7481C17.7392 55.737 17.7677 55.7256 17.7958 55.7148C17.7958 55.3811 17.7617 55.0429 17.8101 54.717C17.8344 54.5593 17.9868 54.375 18.1319 54.2956C18.2394 54.2357 18.4885 54.2702 18.5698 54.3592C18.7873 54.5967 18.9912 54.8662 19.1231 55.1581C19.4766 55.9425 19.756 56.7614 20.1326 57.5331C20.327 57.9321 20.6536 58.2697 20.9426 58.6167C21.3021 59.049 21.6685 59.4777 22.0625 59.8777C22.3419 60.1614 22.6625 60.4078 22.9809 60.6497C23.6667 61.1706 24.3515 61.6944 25.0584 62.1852C25.7018 62.6326 26.3746 63.0367 27.0329 63.4626C27.447 63.7305 27.8467 64.024 28.2741 64.2688C28.712 64.5196 29.1309 64.7726 29.6836 64.8188C30.2568 64.8667 30.811 65.1346 31.3754 65.2995C31.6517 65.3797 31.9328 65.4455 32.2119 65.5164C32.8832 65.6871 33.5487 65.8876 34.2275 66.0203C35.316 66.2321 36.4115 66.4113 37.5077 66.5826C38.9911 66.8138 40.4783 66.9348 41.9808 66.7343C42.5596 66.6571 43.1537 66.6941 43.7336 66.621C44.002 66.5877 44.2483 66.3999 44.5145 66.3113C44.9277 66.1723 45.3492 66.0592 45.7668 65.9344C47.4478 65.4325 48.9702 64.626 50.2952 63.4787C50.7587 63.0772 51.1024 62.5395 51.5558 62.1241C52.0142 61.7042 52.5159 61.3175 53.0452 60.9926C53.4809 60.7244 53.9235 61.0477 53.8802 61.5655ZM90.0515 24.7954C89.7998 25.8907 89.1419 26.7777 88.4447 27.6286C87.8111 28.4022 87.1874 29.1869 86.5045 29.9158C85.7071 30.767 84.8863 31.6036 84.0099 32.3715C82.9887 33.2661 81.8878 34.0688 80.8401 34.9339C80.5046 35.2113 80.2315 35.5641 79.9238 35.8763C79.7313 36.0714 79.5438 36.2759 79.3275 36.4419C78.2785 37.2478 77.5773 38.3589 76.8232 39.4046C76.2895 40.1449 75.9873 41.042 75.7919 41.9572C75.6262 42.7327 75.3856 43.493 75.2307 44.2704C74.9547 45.6555 74.7033 47.0456 74.4687 48.4386C74.2196 49.9171 74.0135 51.4029 73.415 52.7965C73.0413 53.6664 72.7526 54.5818 72.2945 55.4036C71.8389 56.2205 71.2205 56.947 70.6691 57.7101C70.4658 57.9916 70.2511 58.2652 70.094 58.4729C70.229 57.5667 70.4007 56.6173 70.5003 55.66C70.5483 55.1987 70.4174 54.7208 70.4434 54.2544C70.5237 52.8031 70.2037 51.4187 69.7664 50.0596C69.4715 49.1428 69.1243 48.2391 68.7386 47.3569C68.3873 46.5538 68.4955 45.6954 68.3304 44.873C68.1999 44.2238 68.0756 43.5737 67.9485 42.9239C67.8363 42.3508 67.7579 41.7684 67.6045 41.2067C67.3089 40.1243 67.1932 38.9878 66.638 37.9812C66.3563 37.4698 66.1492 36.9112 65.8255 36.4302C65.3866 35.7782 64.8846 35.1667 64.3809 34.5615C63.2418 33.1933 61.8307 32.1423 60.3707 31.146C59.4586 30.5238 58.598 29.8249 57.6783 29.2147C56.9707 28.7457 56.1904 28.3889 55.4743 27.9322C54.7873 27.4946 54.123 27.0155 53.4821 26.512C52.7806 25.9604 52.2893 25.2387 51.9266 24.4189C51.6987 23.9043 51.8609 23.6047 52.4284 23.6193C53.0702 23.6361 53.6497 23.8578 54.2087 24.1652C55.4819 24.867 56.5208 25.8701 57.5989 26.8173C58.4857 27.5966 59.2698 28.4975 60.1797 29.2464C60.7969 29.7546 61.5294 30.1422 62.2554 30.4905C62.7109 30.709 63.2181 30.5285 63.6651 30.2987C63.8684 30.1942 64.0859 30.0954 64.2519 29.944C64.767 29.4741 65.0531 28.8487 65.2093 28.1938C65.4761 27.0738 65.7316 25.9436 65.8704 24.803C65.9867 23.8454 66.2371 22.9249 66.4202 21.986C66.6513 20.8001 66.8698 19.611 67.1129 18.4273C67.308 17.4789 67.8173 16.6803 68.3734 15.9092C68.5606 15.6493 68.8433 15.5745 69.1107 15.6746C69.3912 15.7794 69.4326 16.0692 69.4007 16.3491C69.2268 17.8526 69.0336 19.3542 68.8828 20.8599C68.7844 21.8378 68.7617 22.8229 68.6792 23.803C68.6121 24.6048 68.4816 25.4018 68.4272 26.2042C68.3924 26.7118 68.4281 27.2267 68.4651 27.7362C68.4898 28.0779 68.5751 28.4148 68.6267 28.7552C68.737 29.4832 69.7788 30.1818 70.53 29.9586C71.1693 29.7689 71.6682 29.3813 71.9126 28.7049C72.0068 28.4452 72.2357 28.2359 72.3976 27.9997C72.8851 27.2888 73.1295 26.4769 73.311 25.651C73.4614 24.9648 73.5411 24.2628 73.6499 23.5674C73.8114 22.5357 73.9414 21.4983 74.1396 20.4739C74.3113 19.5857 74.5282 18.7028 74.7833 17.8349C74.9623 17.2253 75.2155 16.6341 75.4808 16.0555C75.5952 15.8057 75.7875 15.5397 76.1441 15.6113C76.4299 15.6686 76.6664 16.103 76.6468 16.5429C76.6221 17.0958 76.6164 17.6544 76.5276 18.1981C76.3945 19.0103 76.2333 19.8219 76.017 20.6155C75.6313 22.0325 75.1425 23.4236 74.7991 24.8502C74.5677 25.8112 74.2278 26.7752 74.4087 27.8056C74.4874 28.254 74.4706 28.7182 74.5266 29.1717C74.5857 29.6523 75.5001 30.0513 75.9743 29.7654C76.6892 29.3338 77.3139 28.7711 77.6633 27.9978C78.1717 26.873 78.6857 25.7425 79.0724 24.5734C79.411 23.5503 80.0139 22.7327 80.6589 21.9112C81.0895 21.3625 81.4259 20.7386 81.8572 20.1908C82.1939 19.7633 82.5903 19.3748 83.0064 19.0242C83.1427 18.9096 83.4936 18.877 83.6204 18.9733C83.751 19.0724 83.824 19.4147 83.7548 19.5809C83.4854 20.2317 83.15 20.8552 82.8379 21.4882C82.7892 21.587 82.7269 21.6791 82.6846 21.7805C82.3871 22.4904 82.0905 23.201 81.799 23.9135C81.45 24.7656 81.1139 25.6231 80.7579 26.4727C80.5716 26.9164 80.3639 27.3515 80.1489 27.7818C79.9848 28.1108 79.7816 28.4202 79.6171 28.7492C79.1853 29.614 78.9428 30.5225 79.0544 31.4991C79.1122 32.0093 79.7442 32.4947 80.2479 32.602C80.8514 32.7306 81.2454 32.464 81.6751 32.1274C82.4541 31.5168 83.0836 30.7752 83.6678 29.9886C84.0324 29.4975 84.3881 28.9991 84.7343 28.4946C84.8161 28.3756 84.8155 28.1976 84.9021 28.0842C85.0681 27.8673 85.2967 27.6954 85.4497 27.4712C85.6533 27.1735 85.8127 26.8448 85.9847 26.5263C86.0539 26.3983 86.0849 26.2451 86.1709 26.1317C86.771 25.3359 87.2598 24.461 88.0031 23.7656C88.4299 23.366 88.9348 23.1646 89.447 22.992C89.7682 22.8837 90.0483 23.183 90.0859 23.4955C90.1381 23.9227 90.147 24.3796 90.0515 24.7954ZM67.7233 57.2388C67.6443 58.0463 67.447 58.843 67.2772 59.6394C67.202 59.9925 67.0559 60.3301 66.956 60.6787C66.8112 61.1844 66.7015 61.7015 66.5311 62.1977C66.4625 62.3972 66.2453 62.54 66.1432 62.7338C65.8713 63.2516 65.6357 63.7883 65.3644 64.3064C65.1248 64.7639 64.8775 65.2206 64.5943 65.6509C64.3742 65.985 64.1001 66.2846 63.8377 66.5885C63.4377 67.0512 63.0625 67.5436 62.6122 67.9521C62.065 68.4486 61.4446 68.8641 60.8664 69.3283C60.4585 69.6554 60.0788 70.0174 59.6675 70.3397C59.3842 70.5611 59.0681 70.74 58.7671 70.9385C58.683 70.9936 58.5846 71.0373 58.5201 71.1108C57.9441 71.7669 57.1651 72.1159 56.4148 72.5025C55.9494 72.7425 55.4682 72.9576 54.9791 73.1444C54.7142 73.2457 54.4091 73.2384 54.1362 73.3255C53.3366 73.5801 52.5475 73.8695 51.747 74.1219C51.305 74.2616 50.8488 74.354 50.3985 74.4664C50.1086 74.539 49.8105 74.5865 49.5297 74.6856C48.3912 75.0865 47.1901 75.0165 46.0194 75.1647C44.092 75.4088 42.1508 75.3325 40.2168 75.2796C39.44 75.2587 38.66 75.1267 37.9028 74.8537C37.3701 74.6615 36.7735 74.6406 36.2028 74.5618C35.7842 74.5041 35.3602 74.4335 34.9407 74.4449C34.0127 74.4702 33.167 74.0523 32.2432 74.0067C31.6203 73.9763 31.0155 73.6463 30.3942 73.4835C30.0733 73.399 29.7341 73.3797 29.4018 73.342C28.4625 73.2353 27.5412 73.0605 26.6828 72.6406C26.6379 72.6181 26.5911 72.5782 26.5465 72.5801C25.6613 72.6159 25.021 71.9835 24.2423 71.7226C23.3972 71.4395 22.6154 70.9721 21.7835 70.6409C21.0677 70.3556 20.3251 70.1336 19.5859 69.911C18.8483 69.689 18.2305 69.2498 17.5808 68.866C17.5163 68.8277 17.4635 68.7653 17.3955 68.7387C16.2051 68.2729 15.1488 67.5487 14.0736 66.8868C13.1798 66.3368 12.3265 65.6899 11.5825 64.9058C10.935 64.2231 10.1345 63.6895 9.43799 63.0499C9.0216 62.6673 8.68204 62.2022 8.29601 61.7851C7.86919 61.3244 7.40284 60.8981 7.00005 60.4181C6.375 59.6733 5.74552 58.926 5.19666 58.1255C4.39582 56.9576 3.96394 55.621 3.60035 54.2609C3.19914 52.7584 2.99964 51.2359 3.04232 49.6814C3.04232 48.9885 2.99268 48.2915 3.05718 47.605C3.11441 46.9945 3.27818 46.3909 3.43152 45.794C3.6092 45.1034 3.77835 44.4039 4.03855 43.7427C4.51185 42.5403 5.19444 41.4513 6.0152 40.452C6.71171 39.6036 7.40411 38.7524 8.2059 37.9982C9.06239 37.1922 10.0709 36.633 11.1216 36.1318C11.9139 35.7537 12.6765 35.3091 13.482 34.9645C14.0783 34.7099 14.7204 34.5617 15.3461 34.3787C16.3152 34.0953 17.282 33.8014 18.2602 33.5529C19.0181 33.3603 19.7901 33.2204 20.5597 33.0772C21.0127 32.993 21.4746 32.9585 21.9293 32.8828C22.494 32.7891 23.0523 32.6491 23.6195 32.5782C24.4437 32.4749 25.2727 32.4062 26.1014 32.34C26.961 32.2717 27.8219 32.2096 28.6838 32.1729C29.054 32.157 29.428 32.2036 29.7992 32.2365C30.768 32.322 31.7367 32.4084 32.7041 32.5091C33.0763 32.5481 33.4424 32.6396 33.8145 32.6833C34.2464 32.734 34.6827 32.7482 35.1152 32.7957C36.0276 32.8961 36.9385 33.0098 37.8503 33.1133C38.1795 33.1507 38.5105 33.1735 38.8402 33.2055C38.9525 33.2166 39.065 33.2305 39.1763 33.2511C39.5137 33.3138 39.8494 33.3866 40.1884 33.4423C40.3483 33.4689 40.5352 33.4186 40.6724 33.4832C41.5687 33.9053 42.5523 33.9734 43.4935 34.2099C44.5732 34.481 45.6529 34.7574 46.7206 35.0725C47.7927 35.3889 48.8544 35.7435 49.9113 36.1083C50.1892 36.2043 50.4226 36.4228 50.6941 36.545C51.7435 37.0181 52.8011 37.4725 53.8529 37.9399C54.14 38.0675 54.4208 38.2106 54.7006 38.3544C55.644 38.8395 56.5631 39.3797 57.5337 39.8019C58.6608 40.292 59.6359 41.0109 60.6454 41.6812C61.2904 42.1097 61.9467 42.5318 62.5351 43.0308C62.9037 43.3431 63.1567 43.7924 63.4602 44.1813C63.4826 44.2101 63.4874 44.263 63.5146 44.2769C64.2993 44.6743 64.6019 45.5056 65.1615 46.1037C65.8384 46.827 66.416 47.6247 66.8166 48.5189C67.2763 49.5452 67.7278 50.5848 67.7195 51.7622C67.7151 52.4569 67.8928 53.1529 67.8884 53.8483C67.8814 54.9791 67.834 56.1137 67.7233 57.2388ZM2.55791 42.9669C2.50796 43.0724 2.43588 43.1664 2.37391 43.2662C2.33312 43.2608 2.29234 43.2561 2.25155 43.2507C2.21741 42.997 2.14785 42.7427 2.15512 42.4904C2.20097 40.8729 2.24491 39.2547 2.32964 37.6391C2.36917 36.8851 2.44694 36.1255 2.59933 35.3873C2.89747 33.9434 3.47068 32.5991 4.17161 31.3008C4.53488 30.6279 4.79319 29.898 5.09765 29.1934C5.36892 28.5655 5.66738 27.9468 5.90166 27.3052C6.17071 26.569 6.45621 25.8349 6.49415 25.0303C6.52418 24.3938 6.65539 23.7608 6.66677 23.1246C6.67689 22.5885 6.59121 22.0486 6.52703 21.5128C6.32247 19.8003 6.11127 18.0888 5.89534 16.3775C5.82167 15.7923 5.74958 15.2056 5.63545 14.6273C5.4976 13.932 5.2649 13.2524 5.16405 12.5526C4.9655 11.1742 4.39546 9.84323 4.60349 8.41255C4.64997 8.09463 4.73217 7.77923 4.82481 7.4708C4.90954 7.18961 5.12832 7.19214 5.28514 7.37327C5.53712 7.66365 5.83337 7.96511 5.94877 8.31565C6.29528 9.3676 6.53809 10.4531 6.87007 11.5105C7.13059 12.3395 7.43948 13.1558 7.77113 13.9598C8.15401 14.8889 8.59379 15.7942 8.99216 16.7173C9.25109 17.3168 9.46324 17.9365 9.7266 18.5334C10.1139 19.4105 11.4854 19.8082 12.2625 19.2538C12.7106 18.9339 12.9489 18.4317 12.9935 17.8978C13.0577 17.1217 13.1013 16.3332 13.0371 15.5596C12.9477 14.4833 12.7754 13.412 12.5907 12.3464C12.4598 11.5896 12.2085 10.8531 12.0874 10.095C11.9796 9.41637 11.9464 8.7213 11.9375 8.03256C11.9318 7.57403 12.0033 7.11044 12.0827 6.65635C12.1886 6.05216 12.3277 5.45335 12.4718 4.85708C12.4978 4.751 12.6192 4.66803 12.6963 4.5743C12.7871 4.66455 12.9192 4.73833 12.9622 4.84758C13.2389 5.5474 13.3106 6.27889 13.3132 7.03001C13.3154 7.5563 13.4143 8.08196 13.4716 8.60793C13.5398 9.23207 13.6002 9.85748 13.6812 10.48C13.8608 11.8562 14.052 13.2312 14.2373 14.6068C14.2844 14.9564 14.3163 15.3082 14.3739 15.6562C14.4817 16.3082 14.7574 16.8627 15.2882 17.2889C15.7479 17.6581 16.2497 17.6378 16.5412 17.1331C17.225 15.9491 17.6288 14.6786 17.6474 13.2933C17.6636 12.0852 17.7221 10.8774 17.7464 9.66907C17.7575 9.10636 17.717 8.5427 17.7268 7.97968C17.7442 6.97586 17.7831 5.97268 17.8115 4.96918C17.8204 4.65537 17.7998 4.33776 17.8441 4.02933C17.8643 3.88873 18.0066 3.6601 18.0977 3.6582C18.2649 3.6544 18.5419 3.75003 18.5861 3.87227C18.7373 4.29247 18.8599 4.73707 18.8995 5.18103C19.0357 6.71778 19.1242 8.25897 19.2494 9.797C19.2858 10.246 19.3961 10.6887 19.4502 11.1368C19.516 11.6827 19.5722 12.2302 19.607 12.7787C19.6513 13.4823 19.817 14.1463 20.1913 14.747C20.4464 15.1562 21.0348 15.1806 21.4626 14.9849C22.3004 14.6014 22.4095 13.8104 22.6725 13.0922C22.8158 12.7014 22.9878 12.3179 23.0908 11.9167C23.2246 11.3949 23.3403 10.8629 23.3956 10.3284C23.4854 9.46482 23.5385 8.59622 23.5711 7.72857C23.5961 7.06421 23.5243 6.39511 23.5689 5.73328C23.6495 4.53884 23.5587 3.31082 24.137 2.19428C24.1424 2.18351 24.1361 2.16419 24.143 2.15754C24.2787 2.02676 24.4156 1.89725 24.5518 1.76742C24.6571 1.92828 24.8275 2.07838 24.8563 2.25191C24.9925 3.0822 25.1336 3.91628 25.1914 4.75448C25.2724 5.92866 25.5297 7.10063 25.2923 8.28526C25.1396 9.04714 24.9802 9.80808 24.8465 10.5735C24.7557 11.0928 24.7235 11.6225 24.6302 12.1412C24.5145 12.7863 24.3432 13.4215 24.2347 14.0675C24.1819 14.3826 24.2278 14.7132 24.2104 15.0358C24.1949 15.3224 24.1588 15.608 24.1228 15.8927C24.0848 16.1923 24.0501 16.4934 23.99 16.7889C23.8288 17.5789 24.6318 18.3484 25.4443 18.2857C26.0258 18.2408 26.6085 18.2139 27.1889 18.1597C27.3584 18.1439 27.5266 18.0752 27.6866 18.009C28.5522 17.6518 29.4457 17.8753 30.3269 17.888C30.4236 17.8896 30.5811 18.0755 30.6032 18.1952C30.8609 19.6053 29.8826 21.4425 28.5873 22.0331C27.9142 22.3399 27.2585 22.6892 26.5731 22.9644C26.2673 23.0866 25.9069 23.0705 25.5721 23.1215C25.2458 23.1709 24.9214 23.2329 24.5942 23.275C24.4598 23.2925 24.3185 23.2858 24.1838 23.2659C23.5132 23.1664 22.843 23.0648 22.1749 22.9517C21.9447 22.9128 21.7234 22.8108 21.4929 22.7849C20.5109 22.674 19.5251 22.4907 18.5441 22.5094C17.7303 22.5252 16.8874 22.6914 16.1188 22.9644C15.2617 23.269 14.4346 23.7079 13.666 24.2C12.7011 24.8181 11.9691 25.688 11.4323 26.7143C11.1493 27.2552 10.8177 27.7707 10.5369 28.3122C10.3709 28.632 10.2616 28.9813 10.1259 29.3173C9.91251 29.8451 9.66621 30.3626 9.49264 30.9034C9.29757 31.5127 9.1515 32.139 9.0127 32.7641C8.83471 33.5637 8.71235 34.3766 8.50684 35.1682C8.44899 35.3915 8.21914 35.6169 8.00952 35.7461C6.56845 36.635 5.61237 37.9678 4.69739 39.3361C4.11818 40.2022 3.56458 41.0863 3.02204 41.9758C2.83329 42.2852 2.71505 42.6373 2.55791 42.9669ZM91.0383 22.4425C90.9618 21.9486 90.5103 21.4185 90.0234 21.3786C89.3203 21.3206 88.6096 21.3349 87.9813 21.7418C87.2361 22.2247 86.6228 22.8362 86.1217 23.5756C85.1994 24.9359 84.2162 26.2555 83.3271 27.6367C82.8339 28.4024 82.3767 29.1805 81.6657 29.7657C81.5259 29.8803 81.3384 29.9367 81.1734 30.0196C81.1908 29.8467 81.1585 29.6469 81.2344 29.506C81.4472 29.1121 81.7242 28.7533 81.9407 28.3613C82.31 27.6918 82.6622 27.0123 83.0011 26.327C83.1314 26.0639 83.2247 25.7779 83.3012 25.4933C83.4204 25.0471 83.4855 24.5857 83.6189 24.1446C83.8978 23.225 84.2399 22.3238 84.4919 21.3973C84.6879 20.6749 84.8061 19.9292 84.9231 19.1882C85.0142 18.6122 84.6733 18.1698 84.3335 17.7727C84.0356 17.4247 83.4808 17.482 82.9433 17.869C81.9591 18.5771 81.1642 19.4748 80.4494 20.4447C79.9732 21.0907 79.5164 21.751 79.0605 22.4118C78.6988 22.9365 78.2059 23.3754 78.0434 24.0325C77.9817 24.2805 77.842 24.5081 77.743 24.7475C77.5097 25.3112 77.2972 25.884 77.0411 26.4366C76.8903 26.7615 76.6804 27.0607 76.4774 27.3578C76.4338 27.4217 76.2899 27.4705 76.2201 27.4461C76.1635 27.4265 76.11 27.2805 76.1217 27.2001C76.2172 26.5272 76.2944 25.8489 76.4426 25.1871C76.6618 24.2095 76.9517 23.2481 77.1809 22.2725C77.4076 21.3083 77.6264 20.3399 77.7939 19.3637C77.959 18.3994 78.1708 17.439 78.0288 16.4393C77.9207 15.6774 77.6286 15.0757 76.9536 14.6742C76.412 14.3522 75.4888 14.4342 75.123 14.9412C74.773 15.4269 74.3996 15.9513 74.2488 16.5156C73.7085 18.535 73.2162 20.5698 72.7897 22.6164C72.5481 23.7785 72.3461 24.9454 71.8871 26.0436C71.6762 26.5481 71.4217 27.0408 71.1286 27.5015C70.9534 27.7764 70.6654 27.9791 70.3925 28.2492C70.0413 27.7675 70.0359 27.2675 70.052 26.7906C70.0783 26.0053 70.1981 25.2235 70.2278 24.4381C70.2762 23.1512 70.2727 21.8624 70.3126 20.5752C70.3385 19.7497 70.3862 18.9238 70.4539 18.1008C70.5193 17.3073 70.6186 16.5102 70.3764 15.7366C70.267 15.3873 70.0998 15.0286 69.8668 14.7518C69.421 14.2217 68.42 14.2166 68.0251 14.704C67.2309 15.6834 66.4516 16.6679 66.1515 17.9428C65.972 18.7069 65.7004 19.4492 65.5186 20.2129C65.3273 21.0201 65.1983 21.8422 65.0336 22.656C64.8515 23.5566 64.6444 24.4524 64.4765 25.3555C64.2783 26.4249 64.1989 27.517 63.7395 28.5304C63.5751 28.8929 63.3016 29.2153 63.0383 29.157C62.3854 29.013 61.7711 28.8407 61.27 28.3125C60.4596 27.4585 59.5339 26.7134 58.7347 25.8501C58.102 25.1668 57.4286 24.5515 56.691 23.9879C55.4541 23.0429 54.0264 22.6715 52.5217 22.503C52.2982 22.478 52.0665 22.4653 51.8442 22.4938C50.7307 22.6363 50.7063 22.8105 50.6238 23.8789C50.552 24.808 51.0133 25.587 51.5245 26.3004C51.915 26.8457 52.4164 27.3131 52.8837 27.8008C53.2565 28.1906 53.6213 28.5994 54.0453 28.9271C54.5898 29.3477 55.1949 29.6881 55.7652 30.0763C56.458 30.5478 57.1349 31.0431 57.8314 31.5089C58.3328 31.8442 58.8659 32.1317 59.3651 32.4693C60.195 33.0304 61.0139 33.609 61.8293 34.191C62.8808 34.9415 63.6817 35.9051 64.3134 37.0356C64.7756 37.8624 65.1259 38.7231 65.387 39.6274C65.5749 40.2766 65.8749 40.9178 65.9214 41.5771C65.9701 42.2709 66.2047 42.8894 66.3738 43.5373C66.412 43.6823 66.4528 43.8264 66.4927 43.9711C66.4611 43.9869 66.4291 44.0027 66.3975 44.0183C66.3071 43.9226 66.2198 43.8232 66.1253 43.732C65.5945 43.2184 65.0867 42.6769 64.5233 42.2022C63.7085 41.5163 62.8565 40.8741 62.0126 40.2237C61.6361 39.934 61.263 39.6265 60.8479 39.4032C59.8362 38.8592 58.8045 38.3519 57.7738 37.8443C56.3192 37.1277 54.8604 36.4181 53.3975 35.7179C52.8075 35.4358 52.1961 35.1989 51.6052 34.9187C51.0136 34.6388 50.4461 34.3072 49.8489 34.0422C49.4474 33.8639 49.0155 33.7521 48.5918 33.6289C47.7006 33.3693 46.8064 33.1188 45.9117 32.8705C44.96 32.6064 44.0065 32.3499 43.0542 32.0884C42.8323 32.0276 42.6132 31.9547 42.3906 31.8968C41.9182 31.773 41.4443 31.6539 40.9701 31.5374C40.8999 31.52 40.8234 31.5272 40.7503 31.5196C40.3178 31.4747 39.8844 31.4386 39.4534 31.3806C38.5527 31.2597 37.6538 31.1222 36.7528 31.0019C36.4151 30.9569 36.0733 30.9408 35.7335 30.9126C35.6244 30.9034 35.5144 30.9031 35.4056 30.8898C34.6389 30.7948 33.8741 30.6802 33.1052 30.6064C32.5645 30.5545 32.0182 30.5605 31.4747 30.5345C30.1181 30.4693 28.7693 30.2429 27.4013 30.4411C26.1022 30.6292 24.7923 30.7429 23.4894 30.9085C22.6263 31.0181 21.7673 31.1599 20.9067 31.2907C20.8241 31.3034 20.7464 31.3445 20.6645 31.3654C20.2158 31.4794 19.7659 31.6723 19.3183 31.6675C19.1086 31.6656 18.9227 31.683 18.7327 31.7375C18.3359 31.8512 17.9436 31.982 17.5468 32.0963C17.077 32.2315 16.6027 32.3515 16.1335 32.4893C15.9679 32.538 15.8167 32.6381 15.6504 32.6831C15.2088 32.8028 14.7592 32.8927 14.3188 33.0171C13.7282 33.184 13.1376 33.361 12.6286 33.7315C12.4502 33.7483 12.2536 33.7223 12.0971 33.7895C11.6077 34.0004 11.1344 34.2483 10.6519 34.4763C10.5751 34.5124 10.484 34.5187 10.3993 34.5387C10.3933 34.4475 10.3626 34.3496 10.3854 34.2664C10.6165 33.4294 10.8375 32.5893 11.0996 31.7622C11.3414 30.9981 11.5773 30.2248 11.9093 29.4984C12.5179 28.1672 13.2008 26.8663 14.1268 25.7232C14.4519 25.322 14.8499 24.909 15.3055 24.6997C16.1478 24.3134 17.0823 24.1554 18.0109 24.1541C19.0916 24.1528 20.1744 24.2181 21.2522 24.3045C22.3408 24.3916 23.4075 24.7342 24.5185 24.5654C25.3472 24.4394 26.1929 24.542 27.0178 24.257C27.8683 23.9632 28.6141 23.5154 29.3242 22.9935C29.6366 22.7643 29.9044 22.4691 30.1725 22.1848C30.691 21.6357 31.2009 21.0891 31.4713 20.3485C31.8048 19.4362 31.7119 18.5061 31.6546 17.5837C31.6082 16.8259 31.1598 16.3693 30.4428 16.1917C30.2585 16.1464 30.0466 16.1901 29.8746 16.1229C29.2616 15.8832 28.6644 16.0143 28.0697 16.1644C27.3118 16.356 26.5606 16.5732 25.8059 16.7768C25.4664 16.8687 25.3181 16.7062 25.3655 16.357C25.491 15.4358 25.5925 14.5115 25.7111 13.5897C25.8214 12.7324 25.7335 11.8426 26.1433 11.0326C26.2252 10.8711 26.2536 10.6732 26.2694 10.4886C26.3102 10.0149 26.3311 9.53955 26.3579 9.06456C26.3892 8.5142 26.4651 7.96163 26.4389 7.41412C26.3883 6.35489 26.2656 5.29914 26.1986 4.24055C26.1325 3.19303 26.032 2.15913 25.6444 1.16672C25.4828 0.752522 25.19 0.465627 24.8628 0.230981C24.0481 -0.352309 22.7404 0.234464 22.5637 1.26013C22.3872 2.28453 22.2178 3.31304 22.1166 4.34663C21.9974 5.56387 21.9509 6.78872 21.8798 8.0104C21.833 8.81535 21.8115 9.62189 21.7527 10.4256C21.7195 10.8752 21.6323 11.3208 21.5715 11.7685C21.5241 12.1175 21.4941 12.4696 21.4267 12.8148C21.4052 12.9259 21.2895 13.019 21.2171 13.1204C21.1422 13.0165 21.0622 12.9158 20.9946 12.8069C20.9699 12.767 20.9743 12.7087 20.9658 12.659C20.8415 11.9265 20.7176 11.1941 20.593 10.4617C20.4941 9.88091 20.3768 9.30238 20.3003 8.71877C20.1871 7.85618 20.1074 6.98916 20.0046 6.12531C19.9525 5.68642 19.8504 5.25133 19.8257 4.81149C19.784 4.06068 19.5551 3.37891 19.1769 2.73925C18.6221 1.80035 17.181 1.8925 16.6413 2.79055C16.5117 3.00557 16.376 3.22438 16.2938 3.45903C15.9467 4.45303 15.928 5.48851 15.9957 6.52082C16.0687 7.63484 16.2297 8.74315 16.2945 9.85748C16.3536 10.8667 16.3925 11.8841 16.3321 12.8914C16.2793 13.7752 16.0785 14.6505 15.9353 15.5279C15.9227 15.6062 15.8531 15.6749 15.7576 15.836C15.6561 15.166 15.5546 14.6125 15.4927 14.0545C15.4165 13.3655 15.3732 12.6729 15.3156 11.982C15.2265 10.9116 15.125 9.84197 15.0526 8.77038C15.0023 8.02718 15.0314 7.27701 14.9549 6.53761C14.8411 5.43657 14.4667 4.42738 13.6817 3.61166C12.9732 2.8751 12.1211 3.16928 11.7572 3.73705C11.0047 4.91123 10.7306 6.28111 10.7104 7.6342C10.6889 9.07026 10.9254 10.5111 11.0648 11.9484C11.2109 13.4525 11.386 14.9538 11.5201 16.4592C11.5384 16.6647 11.4584 16.9801 11.312 17.0789C11.0221 17.2746 10.7297 17.0498 10.5725 16.811C10.2886 16.3807 10.0332 15.9231 9.82893 15.4497C9.48526 14.6527 9.20988 13.8265 8.87158 13.0273C8.46436 12.0652 7.98221 11.133 7.81876 10.0839C7.76248 9.72258 7.75995 9.33404 7.61641 9.00946C7.26041 8.20609 6.85035 7.42521 6.43586 6.64939C6.18008 6.17028 5.79468 5.8096 5.26131 5.64652C5.01882 5.57242 4.6723 5.39319 4.53856 5.49041C4.06337 5.8362 3.61062 6.26021 3.45001 6.85458C3.32608 7.31216 3.32386 7.80108 3.2385 8.27101C3.13037 8.86792 2.99758 9.46039 3.13417 10.07C3.16958 10.2289 3.2249 10.3838 3.25526 10.5434C3.47815 11.715 3.72286 12.8829 3.90971 14.0602C4.09119 15.2053 4.21291 16.3598 4.35961 17.5102C4.49841 18.6008 4.63246 19.692 4.77442 20.782C4.86548 21.4793 5.01218 22.1705 4.85852 22.8808C4.78707 23.2111 4.70297 23.56 4.73806 23.8884C4.84777 24.9122 4.43771 25.7906 4.03586 26.6725C3.64856 27.5218 3.19392 28.3419 2.84077 29.2042C2.14489 30.9018 1.41139 32.5871 1.01303 34.3943C0.810681 35.3107 0.465114 36.1932 0.443931 37.1515C0.428439 37.8513 0.349082 38.5498 0.31462 39.2497C0.283004 39.8928 0.255814 40.5369 0.26024 41.1803C0.263402 41.6952 0.316201 42.2098 0.347817 42.7244C0.355405 42.845 0.356354 42.9669 0.378485 43.0854C0.477761 43.6136 0.59316 44.1389 0.685164 44.6687C0.806887 45.3714 0.954851 46.074 1.01303 46.783C1.0712 47.4946 1.03863 48.214 1.03547 48.93C1.03294 49.4471 0.986467 49.9655 1.00923 50.481C1.03168 50.9832 1.11135 51.4836 1.1768 51.9832C1.21695 52.2898 1.26564 52.596 1.3314 52.8978C1.45882 53.4839 1.58496 54.0719 1.74336 54.6502C1.82999 54.9671 2.0551 55.2582 2.08893 55.5748C2.18346 56.4589 2.57108 57.2408 2.88408 58.0451C3.04279 58.4523 3.33936 58.8048 3.56731 59.186C3.85723 59.6711 4.08866 60.2031 4.4415 60.636C4.78327 61.0556 4.82343 61.7291 5.46745 61.8995C5.47978 61.9023 5.4861 61.9435 5.48927 61.9679C5.54523 62.4334 5.88985 62.7127 6.19052 63.005C6.51616 63.3213 6.90663 63.5711 7.22627 63.8926C7.61072 64.2786 7.93764 64.7216 8.31355 65.1168C8.606 65.4242 8.93418 65.6982 9.24876 65.9841C9.51908 66.2295 9.78529 66.4813 10.0705 66.7083C10.1451 66.7678 10.2842 66.745 10.4938 66.7739C10.9418 67.253 11.4376 67.8552 12.1903 68.1073C12.3557 68.3021 12.5299 68.4933 12.7443 68.613C13.6352 69.1102 14.5075 69.6289 15.3327 70.2369C16.0156 70.74 16.7377 71.2017 17.4861 71.6001C18.101 71.9278 18.7792 72.1365 19.4299 72.3962C20.3139 72.7493 21.2045 73.0868 22.0809 73.4579C22.8157 73.7689 23.5254 74.1403 24.263 74.4443C24.8928 74.7037 25.5451 74.9101 26.1907 75.1305C26.5919 75.2673 26.9925 75.4184 27.4057 75.5058C28.3766 75.7122 29.3555 75.8829 30.3305 76.0713C30.757 76.1537 31.1832 76.2379 31.6072 76.3339C31.8851 76.3966 32.1542 76.5153 32.4346 76.5508C33.102 76.6353 33.7732 76.6907 34.4441 76.7477C35.6026 76.8462 36.7613 76.9485 37.9213 77.0277C38.988 77.1002 40.056 77.166 41.1247 77.1942C42.0985 77.2199 43.0748 77.2211 44.0476 77.179C44.9863 77.1379 45.9218 77.0232 46.8592 76.9479C47.3797 76.9057 47.908 76.9194 48.4208 76.8345C49.7847 76.6078 51.1433 76.3468 52.5012 76.0869C53.0137 75.9893 53.53 75.8912 54.0254 75.7322C54.6489 75.5324 55.2528 75.2715 55.8639 75.0346C56.4055 74.8243 56.9597 74.6404 57.4823 74.3908C57.9945 74.146 58.4906 73.8595 58.9629 73.5447C59.668 73.0751 60.3468 72.5659 61.0347 72.0706C61.3332 71.8553 61.6282 71.6352 61.9206 71.4123C62.3089 71.1169 62.7091 70.8344 63.0746 70.5133C63.3968 70.2302 63.6731 69.8955 63.9804 69.5937C64.4942 69.0893 65.0367 68.6121 65.5287 68.0874C65.9116 67.6792 66.1063 67.12 66.5806 66.7682C66.7301 66.657 66.7671 66.4015 66.8771 66.226C67.1965 65.7162 67.5329 65.2171 67.8506 64.7067C68.0273 64.423 67.997 64.0683 68.2464 63.7843C68.6796 63.2903 69.0185 62.7146 69.4248 62.1952C69.6628 61.8906 69.9581 61.6319 70.2221 61.3472C70.7979 60.7263 71.1286 59.9327 71.778 59.3386C72.3657 58.8013 72.7733 58.0559 73.2146 57.3728C73.9706 56.204 74.3923 54.8747 74.9519 53.6118C75.0338 53.4269 75.1328 53.2451 75.1834 53.0513C75.4562 52.0038 75.7351 50.9569 75.9741 49.9012C76.1164 49.2726 76.1875 48.6276 76.2937 47.9908C76.3364 47.7365 76.3921 47.4844 76.4354 47.2298C76.5498 46.5541 76.6747 45.8793 76.7683 45.2C76.8281 44.7694 76.7923 44.3216 76.8824 43.8995C77.0658 43.0417 77.2574 42.1794 77.5363 41.3498C77.7955 40.5787 78.1218 39.8216 78.7187 39.2227C79.3814 38.5578 80.0431 37.8906 80.6758 37.1974C81.0552 36.7816 81.3211 36.2483 81.739 35.8845C82.5816 35.1524 83.5057 34.5162 84.372 33.8104C85.1021 33.216 85.8178 32.6007 86.5023 31.9551C87.1498 31.3439 87.5798 30.5579 88.018 29.7948C88.5166 28.9281 89.1853 28.1988 89.7781 27.4078C90.2346 26.7989 90.6412 26.1358 90.9593 25.4451C91.168 24.9929 91.2489 24.4508 91.2587 23.9464C91.2688 23.4467 91.1158 22.9445 91.0383 22.4425Z" fill="#442500"/>
</svg>
