<svg width="158px" height="101px" viewBox="0 0 158 101" version="1.1" xmlns="http://www.w3.org/2000/svg" xmlns:xlink="http://www.w3.org/1999/xlink">
    <g id="Page-1" stroke="none" stroke-width="1" fill-rule="evenodd">
        <g id="Artboard">
            <path d="M86.2339431,65.6517374 L0,65.6517374 L62.2934677,5.48225115 C67.6019232,0.355038019 75.2350749,-1.33006709 82.2106611,1.08300342 C89.1847494,3.49757181 94.1397073,9.54148212 95.1402853,16.8540893 L105.092142,89.5188172 C105.390218,91.6892326 106.808702,93.3998015 108.886249,94.0903201 C110.963797,94.7838345 113.125225,94.2625753 114.665036,92.7062871 L141.375076,65.6517374 L110.784052,65.6517374 L109.761006,59.0401339 L157.191098,59.0401339 L119.36985,97.3496879 C117.021188,99.7298052 113.904118,101 110.695678,101 C109.397023,101 108.081893,100.790298 106.798217,100.363405 C102.343548,98.8820101 99.1800439,95.0699279 98.5419508,90.4160421 L88.5900945,17.7528121 C87.9190482,12.845786 84.7255868,8.95132086 80.0462372,7.33212209 C75.3683854,5.70992758 70.4493764,6.79887994 66.8859408,10.2379922 L16.3597493,59.0401339 L85.3037651,59.0401339 L86.2339431,65.6517374 Z M139.370924,31.1917125 L133.37195,31.1917125 L133.37195,0.0809275885 L139.370924,0.0809275885 L150.748754,20.4819334 L150.837128,20.4819334 L150.837128,0.0809275885 L156.881038,0.0809275885 L156.881038,31.1917125 L150.970439,31.1917125 L139.460796,10.7907067 L139.370924,10.7907067 L139.370924,31.1917125 Z" id="Fill-1-Copy"></path>
        </g>
    </g>
</svg>