
<svg width="312px" height="101px" viewBox="0 0 312 101" version="1.1" xmlns="http://www.w3.org/2000/svg" xmlns:xlink="http://www.w3.org/1999/xlink">
    <defs>
        <polygon id="path-1" points="0 0.387167229 154.959 0.387167229 154.959 100.94 0 100.94"></polygon>
    </defs>
    <g id="Page-1" stroke="none" stroke-width="1" fill="none" fill-rule="evenodd">
        <g id="nl-logo">
            <g id="Group-3">
                <mask id="mask-2" fill="white">
                    <use xlink:href="#path-1"></use>
                </mask>
                <g id="Clip-2"></g>
                <path d="M110.01,101 C108.791,101 107.558,100.805 106.353,100.404 C102.17,99.011 99.201,95.434 98.603,91.067 L88.506,17.34 C87.775,12.008 84.303,7.773 79.217,6.013 C74.134,4.254 68.786,5.435 64.914,9.172 L11.99,60.291 L88.243,60.291 L88.874,65.135 L0,65.135 L61.548,5.688 C66.68,0.729 74.057,-0.898 80.802,1.434 C87.546,3.769 92.338,9.612 93.306,16.683 L103.403,90.41 C103.754,92.973 105.429,94.99 107.883,95.806 C110.335,96.626 112.885,96.011 114.701,94.172 L143.367,65.135 L106.097,65.135 L105.403,60.291 L154.959,60.291 L118.149,97.576 C115.946,99.808 113.02,101 110.01,101" id="Fill-1" fill="#1C1D1B" mask="url(#mask-2)"></path>
            </g>
            <polyline id="Fill-4" fill="#1C1D1B" points="116.831 39.334 120.539 18.228 124.158 18.228 129.796 31.766 129.856 31.766 132.238 18.228 136.338 18.228 132.63 39.334 129.072 39.334 123.344 25.796 123.283 25.796 120.901 39.334 116.831 39.334"></polyline>
            <polyline id="Fill-5" fill="#1C1D1B" points="141.766 39.334 145.474 18.228 158.832 18.228 158.198 21.937 148.912 21.937 148.067 26.732 156.509 26.732 155.936 30.048 147.494 30.048 146.529 35.445 155.816 35.445 155.122 39.334 141.766 39.334"></polyline>
            <path d="M163.202,32.278 L165.674,18.228 L169.835,18.228 L167.363,32.278 C166.941,34.71 167.945,35.927 170.378,35.927 C171.664,35.927 172.719,35.58 173.543,34.886 C174.368,34.193 174.89,33.254 175.112,32.068 L177.584,18.228 L181.805,18.228 L179.242,32.701 C178.84,35.012 177.84,36.772 176.242,37.977 C174.644,39.183 172.629,39.786 170.197,39.786 C167.765,39.786 165.89,39.123 164.574,37.796 C163.257,36.47 162.8,34.63 163.202,32.278" id="Fill-6" fill="#1C1D1B"></path>
            <path d="M187.233,39.334 L190.94,18.228 L198.57,18.228 C200.801,18.228 202.499,18.752 203.664,19.797 C204.831,20.842 205.413,22.289 205.413,24.138 C205.413,26.028 204.88,27.601 203.815,28.857 C202.75,30.113 201.313,30.922 199.504,31.284 L202.489,39.334 L198.297,39.334 L195.494,31.494 L192.659,31.494 L191.302,39.334 L187.233,39.334 Z M193.323,27.876 L197.453,27.876 C198.599,27.876 199.499,27.566 200.151,26.942 C200.805,26.319 201.132,25.494 201.132,24.469 C201.132,22.781 200.187,21.937 198.297,21.937 L194.348,21.937 L193.323,27.876 L193.323,27.876 Z" id="Fill-7" fill="#1C1D1B"></path>
            <path d="M222.87,39.334 L222.327,35.957 L214.338,35.957 L212.588,39.334 L208.427,39.334 L219.764,18.228 L223.021,18.228 L226.91,39.334 L222.87,39.334 Z M220.398,24.319 L216.146,32.49 L221.754,32.49 L220.458,24.319 L220.398,24.319 L220.398,24.319 Z" id="Fill-8" fill="#1C1D1B"></path>
            <polyline id="Fill-9" fill="#1C1D1B" points="233.694 39.334 237.402 18.228 241.533 18.228 238.457 35.716 247.171 35.716 246.538 39.334 233.694 39.334"></polyline>
            <polyline id="Fill-10" fill="#1C1D1B" points="253.654 39.334 257.362 18.228 261.493 18.228 257.784 39.334 253.654 39.334"></polyline>
            <polyline id="Fill-11" fill="#1C1D1B" points="266.92 39.334 270.628 18.228 274.247 18.228 279.885 31.766 279.945 31.766 282.327 18.228 286.428 18.228 282.719 39.334 279.161 39.334 273.433 25.796 273.372 25.796 270.99 39.334 266.92 39.334"></polyline>
            <polyline id="Fill-12" fill="#1C1D1B" points="308.829 39.334 304.186 39.334 299.392 30.47 299.332 30.47 297.07 32.972 295.924 39.334 291.854 39.334 295.563 18.228 299.633 18.228 298.096 26.912 298.156 26.912 306.628 18.228 311.844 18.228 302.437 27.696 308.829 39.334"></polyline>
        </g>
    </g>
</svg>