<?xml version="1.0" encoding="utf-8"?>
<!-- Generator: Adobe Illustrator 23.0.1, SVG Export Plug-In . SVG Version: 6.00 Build 0)  -->
<svg version="1.1" id="Layer_1" xmlns="http://www.w3.org/2000/svg" xmlns:xlink="http://www.w3.org/1999/xlink" x="0px" y="0px"
	 viewBox="0 0 228.5 45.7" style="enable-background:new 0 0 228.5 45.7;" xml:space="preserve">
<style type="text/css">
	.st0{fill:#1A99FF;}
</style>
<g>
	<path class="st0" d="M88.6,10.5c0-0.3,0-0.7,0-1c0-0.3,0-0.6,0-0.9c0-0.3-0.1-0.6-0.1-0.9l-0.1-0.5H68.4l-0.1,0.5
		c-0.1,0.3-0.1,0.6-0.1,0.9c0,0.3,0,0.6,0,0.9c0,0.3,0,0.6,0,0.9c0,0.3,0.1,0.6,0.1,0.9l0.1,0.5h7.3v24.4l0.6,0.1
		c0.7,0.1,1.4,0.1,2.1,0.1c0.7,0,1.4,0,2.1-0.1l0.6-0.1V12h7.3l0.1-0.5C88.5,11.2,88.5,10.9,88.6,10.5"/>
	<path class="st0" d="M207.4,32.5l-0.2-0.6l-0.6,0.1c-0.3,0.1-0.6,0.1-1,0.2c-0.4,0.1-0.7,0.1-1.2,0.1c-0.5,0-0.9,0-1.2-0.1
		c-0.2-0.1-0.4-0.2-0.5-0.4c-0.1-0.2-0.3-0.5-0.4-1.2c-0.1-0.6-0.1-1.5-0.1-2.5v-8.4h5l0.1-0.5c0.1-0.3,0.1-0.6,0.1-0.8
		c0-0.3,0-0.6,0-0.9c0-0.6-0.1-1.1-0.2-1.6l-0.1-0.5h-5v-4.9h-1.3l-7.2,8l0.4,1.4h2.9v10.7c0,2.3,0.6,4,1.8,5c1.2,1,2.8,1.5,4.9,1.5
		c0.7,0,1.3,0,1.9-0.1c0.6-0.1,1.2-0.2,1.7-0.3l0.5-0.1v-0.5c0-0.4,0-0.9-0.1-1.5C207.7,33.7,207.6,33.1,207.4,32.5"/>
	<path class="st0" d="M186.4,32.3c-0.3,0.1-0.7,0.1-1.1,0.2c-0.6,0.1-1.2,0.1-1.8,0.1c-0.5,0-0.9,0-1.4-0.1c-0.4,0-0.8-0.2-1.2-0.4
		c-0.3-0.2-0.6-0.4-0.8-0.8c-0.2-0.3-0.3-0.8-0.3-1.5c0-1,0.3-1.7,1-2.2c0.7-0.5,1.9-0.8,3.3-0.8c0.4,0,0.9,0,1.5,0.1
		c0.3,0,0.6,0.1,0.9,0.1V32.3z M189.3,16.7c-1.5-1.3-3.7-1.9-6.4-1.9c-1,0-2.1,0.1-3.2,0.2c-1.1,0.2-2.1,0.4-3.1,0.7l-0.5,0.1v0.5
		c0,1.3,0.3,2.5,0.8,3.4l0.3,0.5l0.5-0.2c0.7-0.2,1.5-0.4,2.3-0.5c0.8-0.1,1.6-0.2,2.5-0.2c1.3,0,2.4,0.3,3,0.8
		c0.6,0.5,0.9,1.4,0.9,2.7c-0.2,0-0.4,0-0.6-0.1c-0.6,0-1.3-0.1-2.1-0.1c-1.2,0-2.3,0.1-3.4,0.4c-1.1,0.3-2.1,0.7-2.9,1.3
		c-0.9,0.6-1.6,1.4-2.1,2.3c-0.5,0.9-0.8,2-0.8,3.3c0,1.2,0.2,2.3,0.7,3.2c0.4,0.9,1.1,1.7,1.9,2.2c0.8,0.6,1.8,1,2.9,1.2
		c1.1,0.2,2.3,0.4,3.6,0.4c1.4,0,2.8-0.1,4.1-0.3c1.3-0.2,2.5-0.4,3.4-0.6l0.5-0.1v-13C191.6,20.1,190.9,18,189.3,16.7"/>
	<path class="st0" d="M214.7,23.3c0.2-1.2,0.7-2.2,1.3-2.9c0.7-0.8,1.8-1.2,3.2-1.2c0.7,0,1.3,0.1,1.8,0.4c0.5,0.3,0.9,0.6,1.2,1
		c0.3,0.4,0.6,0.9,0.8,1.5c0.1,0.4,0.2,0.8,0.2,1.2H214.7z M227.9,20.8c-0.4-1.2-1-2.3-1.7-3.1c-0.8-0.9-1.7-1.6-2.9-2.1
		c-1.1-0.5-2.5-0.8-4-0.8c-1.7,0-3.3,0.3-4.5,0.9c-1.3,0.6-2.4,1.4-3.2,2.4c-0.8,1-1.5,2.2-1.9,3.6c-0.4,1.3-0.6,2.8-0.6,4.3
		c0,1.6,0.2,3,0.6,4.3c0.4,1.3,1.1,2.5,2,3.5c0.9,1,2.1,1.8,3.5,2.3c1.4,0.5,3.1,0.8,5,0.8c1.3,0,2.5-0.1,3.6-0.3
		c1.1-0.2,2.1-0.5,3-0.9l0.4-0.2l0-0.5c0-0.6-0.1-1.2-0.3-1.8c-0.1-0.6-0.3-1.1-0.6-1.6l-0.3-0.5l-0.6,0.2c-1.6,0.6-3.3,0.9-5.1,0.9
		c-1.9,0-3.4-0.5-4.4-1.3c-0.8-0.8-1.3-2-1.5-3.6h13.7l0.1-0.6c0-0.3,0.1-0.6,0.1-1.1c0-0.4,0-0.8,0-1.2
		C228.5,23.3,228.3,22,227.9,20.8"/>
	<path class="st0" d="M57.7,15.7c-0.1,0.2-0.1,0.5-0.1,0.8c0,0.3,0,0.6,0,0.9c0,0.3,0,0.6,0,0.9c0,0.3,0.1,0.6,0.1,0.8l0.1,0.5h2.4
		v16.8l0.6,0.1c0.3,0.1,0.7,0.1,1,0.1c0.4,0,0.7,0,1,0c0.3,0,0.6,0,1,0c0.4,0,0.7-0.1,1-0.1l0.6-0.1V15.2h-7.6L57.7,15.7z"/>
	<path class="st0" d="M59.4,11.6l0.1,0.5l0.5,0.1c0.4,0.1,0.8,0.1,1.2,0.1c0.4,0,0.8,0,1.1,0c0.3,0,0.7,0,1.1,0
		c0.4,0,0.8-0.1,1.1-0.1l0.5-0.1l0.1-0.5c0.1-0.3,0.1-0.7,0.1-1.1c0-0.4,0-0.7,0-1s0-0.6,0-1c0-0.4-0.1-0.8-0.1-1.1L64.9,7l-0.5-0.1
		c-0.3-0.1-0.7-0.1-1.1-0.1c-0.4,0-0.8,0-1.1,0c-0.3,0-0.6,0-1.1,0c-0.4,0-0.8,0.1-1.2,0.1L59.5,7l-0.1,0.5
		c-0.1,0.3-0.1,0.7-0.1,1.1c0,0.4,0,0.7,0,1c0,0.3,0,0.6,0,1C59.3,10.9,59.4,11.3,59.4,11.6"/>
	<path class="st0" d="M134,14.8c-0.9,0-1.7,0.1-2.5,0.4c-0.7,0.2-1.4,0.6-2,0.9c-0.6,0.4-1.1,0.8-1.5,1.3c-0.1-0.7-0.2-1.2-0.2-1.6
		l-0.1-0.4l-0.4-0.1c-0.3-0.1-0.6-0.1-0.9-0.1c-0.3,0-0.6,0-0.9,0c-0.3,0-0.6,0-0.9,0c-0.3,0-0.6,0.1-0.9,0.1l-0.6,0.1v21.1l0.6,0.1
		c0.3,0.1,0.7,0.1,1.1,0.1c0.4,0,0.7,0,1,0c0.3,0,0.6,0,1,0s0.7-0.1,1-0.1l0.6-0.1V25.8c0-1.1,0.1-2.1,0.4-2.9
		c0.3-0.8,0.6-1.4,1.1-1.9c0.4-0.5,0.9-0.8,1.5-1c0.6-0.2,1.2-0.3,1.8-0.3c1,0,1.8,0.3,2.2,1c0.5,0.8,0.8,2,0.8,3.7v12.2l0.6,0.1
		c0.3,0.1,0.7,0.1,1,0.1c0.4,0,0.7,0,1,0c0.3,0,0.6,0,1,0c0.4,0,0.7-0.1,1.1-0.1l0.6-0.1V23.2c0-2.7-0.6-4.8-1.8-6.2
		C138.4,15.5,136.5,14.8,134,14.8"/>
	<path class="st0" d="M158.8,25.7c-0.5-0.5-1-0.9-1.6-1.2c-0.6-0.3-1.2-0.6-1.9-0.8l-1.7-0.6c-0.5-0.2-0.9-0.3-1.3-0.5
		c-0.4-0.1-0.7-0.3-0.9-0.5c-0.2-0.2-0.4-0.4-0.6-0.6c-0.1-0.2-0.2-0.5-0.2-0.8c0-0.6,0.2-1,0.7-1.2c0.7-0.3,1.4-0.4,2.3-0.4
		c0.9,0,1.7,0.1,2.4,0.3c0.8,0.2,1.4,0.4,2,0.6l0.6,0.2l0.3-0.5c0.2-0.5,0.4-1,0.6-1.5c0.2-0.6,0.3-1.1,0.3-1.7l0.1-0.5l-0.5-0.2
		c-0.8-0.3-1.7-0.5-2.7-0.7c-1-0.2-2.1-0.3-3.2-0.3c-2.6,0-4.7,0.6-6.1,1.7c-1.4,1.2-2.2,2.8-2.2,4.7c0,1.5,0.4,2.7,1.3,3.6
		c0.8,0.9,2.1,1.6,3.9,2.3l1.4,0.5c0.5,0.2,0.9,0.3,1.4,0.5c0.4,0.1,0.7,0.3,1,0.5c0.3,0.2,0.5,0.4,0.6,0.7c0.1,0.2,0.2,0.6,0.2,1
		c0,0.3-0.1,0.6-0.3,0.9c-0.2,0.3-0.5,0.6-0.8,0.8c-0.3,0.2-0.8,0.4-1.2,0.5c-0.5,0.1-1,0.2-1.6,0.2c-0.8,0-1.6-0.1-2.4-0.2
		c-0.8-0.2-1.6-0.4-2.2-0.6l-0.6-0.3l-0.3,0.6c-0.2,0.5-0.4,1.1-0.6,1.6c-0.2,0.6-0.3,1.1-0.4,1.7l-0.1,0.5l0.5,0.2
		c0.8,0.3,1.8,0.5,2.8,0.7c1,0.2,2.1,0.3,3.4,0.3c1.3,0,2.5-0.2,3.6-0.5c1.1-0.3,2.1-0.8,2.8-1.4c0.8-0.6,1.4-1.4,1.9-2.3
		c0.4-0.9,0.7-1.9,0.7-2.9c0-0.9-0.1-1.8-0.4-2.4C159.6,26.8,159.2,26.2,158.8,25.7"/>
	<path class="st0" d="M113.4,32.3c-0.3,0.1-0.7,0.1-1.1,0.2c-0.6,0.1-1.2,0.1-1.8,0.1c-0.5,0-0.9,0-1.4-0.1c-0.4,0-0.8-0.2-1.2-0.4
		c-0.3-0.2-0.6-0.4-0.8-0.8c-0.2-0.3-0.3-0.8-0.3-1.5c0-1,0.3-1.7,1-2.2c0.7-0.5,1.9-0.8,3.3-0.8c0.4,0,0.9,0,1.5,0.1
		c0.3,0,0.6,0.1,0.9,0.1V32.3z M116.3,16.7c-1.5-1.3-3.7-1.9-6.4-1.9c-1,0-2.1,0.1-3.2,0.2c-1.1,0.2-2.1,0.4-3.1,0.7l-0.5,0.1v0.5
		c0,1.3,0.3,2.5,0.8,3.4l0.3,0.5l0.5-0.2c0.7-0.2,1.5-0.4,2.3-0.5c0.8-0.1,1.6-0.2,2.5-0.2c1.3,0,2.4,0.3,3,0.8
		c0.6,0.5,0.9,1.4,0.9,2.7c-0.2,0-0.4,0-0.6-0.1c-0.6,0-1.3-0.1-2.1-0.1c-1.2,0-2.3,0.1-3.4,0.4c-1.1,0.3-2.1,0.7-2.9,1.3
		c-0.9,0.6-1.6,1.4-2.1,2.3c-0.5,0.9-0.8,2-0.8,3.3c0,1.2,0.2,2.3,0.7,3.2c0.4,0.9,1.1,1.7,1.9,2.2c0.8,0.6,1.8,1,2.9,1.2
		c1.1,0.2,2.3,0.4,3.6,0.4c1.4,0,2.8-0.1,4.1-0.3c1.3-0.2,2.5-0.4,3.4-0.6l0.5-0.1v-13C118.6,20.1,117.8,18,116.3,16.7"/>
	<path class="st0" d="M100.3,15.7l-0.1-0.4l-0.4-0.1c-0.2,0-0.4-0.1-0.6-0.1c-0.2,0-0.5,0-0.7,0c-1.6,0-2.9,0.4-3.9,1.1
		c-0.5,0.3-0.9,0.7-1.3,1.1c-0.1-0.6-0.2-1.1-0.2-1.5L93,15.4l-0.4-0.1c-0.3-0.1-0.6-0.1-0.9-0.1c-0.3,0-0.6,0-0.9,0
		c-0.3,0-0.6,0-0.9,0c-0.3,0-0.6,0.1-0.9,0.1l-0.6,0.1v21.1l0.6,0.1c0.3,0.1,0.7,0.1,1.1,0.1c0.4,0,0.7,0,1,0c0.3,0,0.6,0,1,0
		c0.4,0,0.7-0.1,1-0.1l0.6-0.1V26c0-1.3,0.1-2.3,0.4-3.1c0.3-0.8,0.6-1.3,1.1-1.8c0.4-0.4,0.9-0.7,1.5-0.9c0.6-0.2,1.2-0.3,1.8-0.3
		H99c0.2,0,0.3,0,0.5,0.1l0.7,0.2l0.1-0.7c0.1-0.3,0.1-0.7,0.1-1c0-0.4,0.1-0.7,0.1-1c0-0.3,0-0.6,0-0.9
		C100.4,16.3,100.4,16,100.3,15.7"/>
	<path class="st0" d="M173,32.1l-0.6,0.2c-0.2,0-0.4,0.1-0.7,0.1c-0.3,0-0.5,0-0.8,0c-0.3,0-0.6,0-0.8-0.1c-0.2,0-0.3-0.1-0.5-0.2
		c-0.1-0.1-0.3-0.4-0.4-0.7c-0.1-0.3-0.2-0.9-0.2-1.5V6.8l-0.6-0.1c-0.3-0.1-0.7-0.1-1-0.1c-0.4,0-0.7,0-1,0s-0.6,0-1,0
		c-0.4,0-0.7,0.1-1,0.1l-0.6,0.1v23.9c0,1.1,0.2,2.1,0.5,2.9c0.3,0.8,0.8,1.4,1.4,1.9c0.6,0.5,1.2,0.8,2,1c0.7,0.2,1.5,0.3,2.3,0.3
		c0.5,0,1,0,1.5-0.1c0.6,0,1.1-0.1,1.5-0.3l0.4-0.2v-0.5c0-1.1-0.1-2.2-0.4-3.1L173,32.1z"/>
	<path class="st0" d="M34.7,22.1c-0.1-3.8-0.7-7.3-1.7-10.4c1.5-0.8,2.9-1.8,4.2-2.9c3.3,3.5,5.5,8.1,5.6,13.2H34.7z M37.2,36.8
		c-1.3-1.1-2.7-2.1-4.2-2.9c1-3,1.7-6.6,1.7-10.4h8.1C42.7,28.7,40.6,33.3,37.2,36.8 M27.6,42.3c2-1.5,3.7-4,4.9-7.1
		c1.3,0.7,2.6,1.5,3.7,2.5C33.8,39.9,30.8,41.5,27.6,42.3 M23.5,32.9c2.7,0.1,5.3,0.7,7.7,1.8c-1.8,4.5-4.6,7.6-7.7,8V32.9z
		 M23.5,23.5h9.8c-0.1,3.6-0.6,6.9-1.6,9.8c-2.5-1.1-5.3-1.8-8.2-1.8V23.5z M23.5,14.2c2.9-0.1,5.7-0.7,8.2-1.8
		c1,2.8,1.5,6.2,1.6,9.8h-9.8V14.2z M23.5,3.1c3.1,0.4,5.9,3.4,7.7,8c-2.4,1-5,1.7-7.7,1.8V3.1z M36.2,7.9c-1.1,1-2.4,1.8-3.7,2.5
		c-1.2-3.1-2.9-5.5-4.9-7.1C30.8,4.2,33.8,5.7,36.2,7.9 M22.1,12.8c-2.7-0.1-5.3-0.7-7.7-1.8c1.8-4.5,4.6-7.6,7.7-8V12.8z
		 M22.1,22.1h-9.8c0.1-3.6,0.6-6.9,1.6-9.8c2.5,1.1,5.3,1.8,8.2,1.8V22.1z M22.1,31.5c-2.9,0.1-5.7,0.7-8.2,1.8
		c-1-2.8-1.5-6.2-1.6-9.8h9.8V31.5z M22.1,42.6c-3.1-0.4-5.9-3.4-7.7-8c2.4-1,5-1.7,7.7-1.8V42.6z M9.5,37.7c1.1-1,2.4-1.8,3.7-2.5
		c1.2,3.1,2.9,5.5,4.9,7.1C14.8,41.5,11.9,39.9,9.5,37.7 M2.8,23.5H11c0.1,3.8,0.7,7.3,1.7,10.4c-1.5,0.8-2.9,1.8-4.2,2.9
		C5.1,33.3,3,28.7,2.8,23.5 M8.4,8.9c1.3,1.1,2.7,2.1,4.2,2.9c-1,3-1.7,6.6-1.7,10.4H2.8C3,17,5.1,12.3,8.4,8.9 M18.1,3.4
		c-2,1.5-3.7,4-4.9,7.1c-1.3-0.7-2.6-1.5-3.7-2.5C11.9,5.7,14.8,4.2,18.1,3.4 M22.8,0C10.2,0,0,10.2,0,22.8s10.2,22.8,22.8,22.8
		s22.8-10.2,22.8-22.8S35.4,0,22.8,0"/>
</g>
</svg>
