<svg width="64px" height="64px" viewBox="0 0 64 64">
    <g id="Page-1" stroke="none" stroke-width="1" fill="none" fill-rule="evenodd">
        <g id="Group-3">
            <path d="M57.6012406,0 L57.6012406,56.1175422 C57.6012406,57.4945532 57.0851715,57.6012406 56.3557279,57.6012406 L55.646133,57.6012406 C54.9166893,57.6012406 54.4006203,57.4945532 54.4006203,56.1175422 L54.4006203,0 L48.0018608,0 L48.0018608,56.1175422 C48.0018608,57.4945532 47.4857918,57.6012406 46.7563481,57.6012406 L46.0442721,57.6012406 C45.3148285,57.6012406 44.8012406,57.4945532 44.8012406,56.1175422 L44.8012406,0 L38.4,0 L38.4,59.3206435 C38.4,62.206164 40.4593138,64 43.2009304,64 L46.4015507,64 C50.2398139,64 51.2024811,60.7993797 51.2024811,60.7993797 C51.2024811,60.7993797 52.1601861,64 56.0009304,64 L59.2015507,64 C61.9406862,64 64,62.206164 64,59.3206435 L64,0 L57.6012406,0 Z M25.6,57.3035084 C25.6,57.4548556 25.6049622,57.5416941 25.6124055,57.588835 C25.6595464,57.5937972 25.7439039,57.6012406 25.8977321,57.6012406 L28.5053693,57.6012406 C28.6567164,57.6012406 28.743555,57.5937972 28.7906959,57.588835 C28.7956581,57.5416941 28.8006203,57.4548556 28.8006203,57.3035084 L28.8006203,32.0012406 L27.0836984,32.0012406 C25.7066873,32.0012406 25.6,32.5148285 25.6,33.2442721 L25.6,57.3035084 Z M35.2018608,3.49587129 L35.2018608,16.0006203 L28.8006203,16.0006203 L28.8006203,6.69649157 C28.8006203,6.54514441 28.7956581,6.46078697 28.7906959,6.41116495 C28.743555,6.40620275 28.6567164,6.40124055 28.5053693,6.40124055 L25.8977321,6.40124055 C25.7439039,6.40124055 25.6595464,6.40620275 25.6124055,6.41116495 C25.6049622,6.46078697 25.6,6.54514441 25.6,6.69649157 L25.6,24.3544873 C25.6,25.083931 25.7066873,25.6 27.0836984,25.6 L28.8006203,25.6 L28.8006203,19.2012406 L35.2018608,19.2012406 L35.2018608,25.6 L35.2018608,32.0012406 L35.2018608,60.5041287 C35.2018608,62.6602055 33.8620663,64 31.7035084,64 L22.6971118,64 C20.5410351,64 19.2012406,62.6602055 19.2012406,60.5041287 L19.2012406,33.6015507 C19.2012406,29.7608064 22.4638884,28.8006203 22.4638884,28.8006203 C22.4638884,28.8006203 19.2012406,27.8404342 19.2012406,23.9996899 L19.2012406,3.49587129 C19.2012406,1.33979453 20.5410351,0 22.6971118,0 L31.7035084,0 C33.8620663,0 35.2018608,1.33979453 35.2018608,3.49587129 L35.2018608,3.49587129 Z M16.0006203,3.49587129 L16.0006203,22.3993797 L9.60186083,22.3993797 L9.60186083,6.69649157 C9.60186083,6.54514441 9.59689862,6.46078697 9.58945532,6.41116495 C9.5423144,6.40620275 9.45795697,6.40124055 9.30412871,6.40124055 L6.69649157,6.40124055 C6.54514441,6.40124055 6.46078697,6.40620275 6.41364606,6.41116495 C6.40620275,6.46078697 6.39875945,6.54514441 6.39875945,6.69649157 L6.39875945,57.3035084 C6.39875945,57.4548556 6.40620275,57.5416941 6.41364606,57.588835 C6.46078697,57.5937972 6.54514441,57.6012406 6.69649157,57.6012406 L8.12064354,57.6012406 C8.71114557,57.6012406 9.60186083,57.6012406 9.60186083,55.4079473 L9.60186083,32.0012406 L9.59937972,32.0012406 L9.59937972,25.6 L16.0006203,25.6 L16.0006203,32.0012406 L16.0006203,58.6085676 C16.0006203,58.6457841 16.0006203,58.6830006 15.9981392,58.717736 L16.0006203,58.8442721 L16.0006203,64 L12.8,64 L11.202171,60.7993797 C11.202171,60.7993797 10.5595658,64 4.80093041,64 L3.49587129,64 C1.33979453,64 0,62.6602055 0,60.5041287 L0,3.49587129 C0,1.33979453 1.33979453,0 3.49587129,0 L12.504749,0 C14.6608257,0 16.0006203,1.33979453 16.0006203,3.49587129 L16.0006203,3.49587129 Z" id="Fill-1" fill="#111111" mask="url(#mask-2)"></path>
        </g>
    </g>
</svg>