<svg viewBox="0 0 234 148">
<path fill-rule="evenodd" clip-rule="evenodd" d="M218.239 95.3452C218.239 94.7173 217.681 94.1142 217.002 94.1142C216.371 94.1142 215.765 94.6927 215.765 95.3452C215.765 96.0207 216.371 96.5756 217.002 96.5756C217.681 96.5756 218.239 96.0207 218.239 95.3452V95.3452ZM231.319 22.6153C231.999 22.6153 232.556 22.0598 232.556 21.3843C232.556 20.757 231.999 20.1539 231.319 20.1539C230.688 20.1539 230.083 20.7324 230.083 21.3843C230.083 22.0598 230.688 22.6153 231.319 22.6153V22.6153ZM225.99 35.328H226.057C229.855 35.3018 232.611 32.8939 232.611 29.6038C232.611 26.2938 229.544 24.8121 226.504 24.8121H226.432C222.728 24.8378 219.934 27.138 219.934 30.163C219.934 33.2523 222.368 35.328 225.99 35.328V35.328ZM219.023 29.8439C219.023 25.9864 221.903 23.1864 225.871 23.1864C230.233 23.1864 233.522 26.3003 233.522 30.4294C233.522 34.0265 230.45 36.9529 226.674 36.9529C222.384 36.9529 219.023 33.8304 219.023 29.8439V29.8439ZM229.873 37.8303L229.792 37.7612L229.303 38.3226L229.385 38.3928C231.479 40.1787 232.691 41.8056 232.691 44.8343C232.691 48.7909 229.184 53.0608 223.517 53.0608C218.448 53.0608 214.477 49.6228 214.477 45.2334C214.477 43.5921 214.679 42.9118 215.134 42.0075C215.995 40.3202 217.477 39.4775 219.436 38.7308L219.543 38.6901L219.245 38.0226L213.463 39.6752L213.617 40.2827H213.701C213.736 40.2827 213.762 40.295 213.787 40.3223C214.02 40.573 213.923 41.7306 213.83 42.8502C213.769 43.5819 213.699 44.4111 213.699 45.1541C213.699 50.3647 218.196 54.7674 223.517 54.7674C229.314 54.7674 233.522 50.6122 233.522 44.8879C233.522 42.0493 232.499 40.0705 229.873 37.8303V37.8303ZM223.035 64.406C221.16 64.406 219.746 65.9278 219.746 67.9463C219.746 70.464 221.464 72.3533 224.239 72.9024V65.4436C224.239 64.7258 224.065 64.406 223.035 64.406V64.406ZM233.521 68.3992C233.521 71.8929 230.619 74.6302 226.913 74.6302C222.356 74.6302 219.048 71.6176 219.048 67.4666C219.048 64.7496 220.785 62.7007 223.089 62.7007C224.244 62.7007 224.881 63.126 224.881 63.899V73.0125C225.174 73.035 225.501 73.0575 225.844 73.0575C227.965 73.0575 229.769 72.4061 230.924 71.2233C231.878 70.2468 232.359 68.921 232.316 67.3895C232.262 65.3035 231.14 63.472 229.157 62.2325L229.059 62.1714L229.399 61.7064L229.483 61.7568C232.238 63.4131 233.521 65.5237 233.521 68.3992V68.3992ZM232.451 75.3487C232.451 76.3456 232.34 76.9285 232.081 77.2992C231.814 77.6811 231.361 77.852 230.612 77.852L224.053 77.7979H223.965C220.657 77.7979 219.05 79.1746 219.05 82.0056C219.05 83.8034 219.851 85.3408 221.566 86.8241H219.532V88.1563H219.639C220.779 88.1563 220.949 89.9744 220.949 91.0575V91.1647H221.619V88.4499H230.499C232.149 88.4499 232.451 89.3011 232.451 90.9783V91.0854H233.121V84.2148H232.451V84.3219C232.451 86.3564 232.086 86.8241 230.499 86.8241H222.487C220.433 85.0435 220.149 83.6989 220.149 82.5108C220.149 80.4688 221.426 79.4767 224.052 79.4767H230.499C231.958 79.4767 232.451 80.1147 232.451 82.0056V82.1128H233.121V75.2416H232.451V75.3487ZM232.45 92.1229C232.45 94.1574 232.085 94.6251 230.498 94.6251H219.531V95.9579H219.639C220.778 95.9579 220.948 97.776 220.948 98.8602V98.9673H221.618V96.2509H230.498C232.148 96.2509 232.45 97.1021 232.45 98.7793V98.8864H233.12V92.0158H232.45V92.1229ZM214.852 97.5297V97.4226H214.182V104.614H214.852V104.506C214.852 102.116 215.921 101.614 216.818 101.614C217.121 101.614 217.455 101.673 217.786 101.785L230.549 106.133L216.206 111.274C216.11 111.309 216.018 111.326 215.933 111.326C215.256 111.326 214.852 110.15 214.852 108.18V108.073H214.182V115.769H214.852V115.662C214.852 113.872 215.32 113.514 216.467 113.073L218.649 112.262L230.629 116.704L216.71 122.273C216.543 122.341 216.384 122.375 216.237 122.375C215.382 122.375 214.852 121.21 214.852 119.336V119.229H214.182V126.926H214.852V126.819C214.852 125.064 215.297 124.706 216.389 124.255L233.121 117.491V116.732L219.814 111.828L233.121 106.897V106.134L218.203 101.049C215.948 100.291 214.852 99.1405 214.852 97.5297V97.5297ZM198.728 100.345C200.964 100.345 202.1 99.7523 202.1 96.5135C202.1 93.8271 201.027 91.3244 199.079 89.4667C197.073 87.5527 194.29 86.4985 191.242 86.4985C187.234 86.4985 183.698 87.888 181.016 90.5166C178.537 92.9449 176.837 96.3421 176.095 100.345H198.728ZM208.588 114.75L209.551 115.446L209.525 115.489C204.625 123.565 198.385 127.326 189.887 127.326C185.043 127.326 180.483 125.421 177.046 121.96C173.479 118.368 171.515 113.413 171.515 108.009C171.515 101.818 173.549 96.0763 177.243 91.8407C179.126 89.6808 181.369 87.9924 183.911 86.8224C186.589 85.5898 189.538 84.9647 192.675 84.9647C196.587 84.9647 200.167 86.1941 202.755 88.4263C205.277 90.6016 206.666 93.5291 206.666 96.672C206.666 101.065 204.587 101.72 203.347 101.72H175.84C175.763 102.714 175.684 103.741 175.684 104.837C175.684 110.294 177.189 115.189 179.922 118.619C182.88 122.332 187.168 124.294 192.324 124.294C192.519 124.294 192.715 124.292 192.912 124.286C199.243 124.123 204.8 120.753 208.557 114.798L208.588 114.75ZM158.098 92.7867C155.392 89.5062 151.682 87.7717 147.367 87.7717C142.239 87.7717 137.14 91.1357 133.722 96.7706V116.722C135.272 119.953 137.297 122.389 139.741 123.963C141.959 125.391 144.524 126.115 147.367 126.115C151.704 126.115 155.403 124.299 158.067 120.864C160.827 117.302 162.287 112.201 162.287 106.111C162.287 100.716 160.838 96.1095 158.098 92.7867V92.7867ZM161.763 90.4876C165.094 94.2384 166.854 99.6676 166.854 106.19C166.854 111.968 164.635 117.395 160.607 121.469C156.773 125.346 151.657 127.569 146.571 127.569C141.752 127.569 137.915 126.848 133.722 123.272V141.072C133.722 144.59 135.739 145.777 141.713 145.777H141.766V147.151H121.27V145.777H121.324C127.073 145.777 129.314 144.502 129.314 141.231L129.235 90.7838H121.111V89.4093H121.165C129.017 89.4093 130.189 86.8096 130.189 85.261V85.2074H133.722V94.3515C137.651 88.1981 142.924 85.2074 149.836 85.2074C154.504 85.2074 158.74 87.0823 161.763 90.4876V90.4876ZM90.576 118.795C90.576 122.311 93.5993 124.767 97.9287 124.767C100.347 124.767 102.967 123.887 105.305 122.289C108.027 120.429 110.331 117.627 111.971 114.185V102.937C95.577 108.82 90.576 112.53 90.576 118.795V118.795ZM123.29 124.147C120.663 126.482 118.551 127.569 116.644 127.569C114.543 127.569 113.373 126.832 112.731 125.107C112.106 123.424 111.975 120.801 111.971 116.853C107.631 124.263 102.704 127.569 96.0163 127.569C93.3476 127.569 90.9464 126.879 89.255 125.626C87.4952 124.323 86.5648 122.509 86.5648 120.381C86.5648 116.415 88.1776 113.419 91.7929 110.667C95.6213 107.751 102.033 104.906 111.971 101.711V98.2619C111.971 94.2379 111.301 91.1936 109.979 89.2148C108.812 87.468 107.17 86.5825 105.097 86.5825C101.953 86.5825 97.4741 87.9672 93.9934 94.5615C92.584 97.2024 91.5497 98.6332 90.1225 98.6332C89.4234 98.6332 88.7421 98.2196 88.345 97.5543C87.7928 96.6286 87.8719 95.3746 88.5624 94.1142C89.9174 91.6409 92.429 89.3595 95.6331 87.6908C98.664 86.1127 102.113 85.2074 105.097 85.2074C112.426 85.2074 116.3 89.7216 116.3 98.2619V120.381C116.3 121.484 116.486 125.084 118.875 125.084C119.916 125.084 121.052 124.332 122.663 123.034L122.714 122.994L123.322 124.119L123.29 124.147ZM79.7547 85.2074C76.1879 85.2074 73.1646 87.8751 70.2515 93.5972V86.6345H66.7988V86.688C66.7988 88.2367 65.6364 90.8363 57.8526 90.8363H57.7982V92.2907H65.9227V118.875C65.9227 121.3 65.3129 122.851 64.0042 123.756C62.8186 124.576 61.0503 124.926 58.0915 124.926H58.0377V126.38H78.0563V124.926H78.0025C71.7724 124.926 70.2515 123.738 70.2515 118.875V96.1347C72.846 90.8144 74.7462 88.6438 76.8078 88.6438C77.5752 88.6438 78.179 89.1527 78.877 89.7419C79.7208 90.4533 80.6777 91.2601 82.1441 91.2601C84.0589 91.2601 85.2966 90.3548 85.2966 88.9523C85.2966 87.1118 83.2237 85.2074 79.7547 85.2074V85.2074ZM37.9902 104.262H38.044C41.1351 104.262 43.0612 104.414 44.3872 105.215C45.8014 106.07 46.4321 107.691 46.4321 110.47L46.2729 119.729C43.3911 123.651 38.0505 125.639 30.398 125.639C27.0361 125.639 23.7491 124.963 20.6295 123.631C17.5426 122.312 14.7695 120.416 12.3877 117.995C7.34468 112.871 4.56782 105.835 4.56782 98.1832C4.56782 90.8652 6.97443 84.0573 11.3442 79.0133C15.7517 73.9254 21.7547 71.1238 28.2475 71.1238C33.2927 71.1238 36.9042 71.7522 39.6122 73.1C43.9669 75.3021 46.7932 78.8258 49.0637 84.8833L49.0842 84.9363L50.6125 84.2609L46.2987 68.7567L46.2847 68.7063L44.9189 69.0465V69.0883C44.9189 69.738 43.8447 70.0407 41.5387 70.0407C39.8673 70.0407 37.7604 69.8837 35.5298 69.7177C33.1183 69.5377 30.6245 69.3518 28.4864 69.3518C21.3705 69.3518 14.183 72.3913 8.76701 77.6913C3.11374 83.2232 0 90.5005 0 98.1832C0 115.211 12.5163 127.569 29.7608 127.569C40.5184 127.569 44.6767 124.223 50.4317 119.592L50.6017 119.455L50.6814 110.471C50.6814 104.872 52.0569 104.262 57.4766 104.262H57.5304V102.728H37.9902V104.262ZM207.219 60.5009C206.332 59.6026 205.934 58.2055 205.969 56.1035L206.129 36.9187C206.168 31.5608 205.024 27.7891 202.629 25.3876C200.595 23.3478 197.71 22.3562 193.81 22.3562C191.015 22.3562 188.489 22.9873 186.089 24.2852C183.7 25.5767 181.423 27.5352 179.13 30.2687V23.7833H175.677V23.8368C175.677 25.386 174.515 27.9851 166.731 27.9851H166.677V29.4401H174.801V56.0237C174.801 58.4492 174.191 60.0006 172.883 60.9053C171.697 61.7249 169.929 62.0747 166.97 62.0747H166.917V63.5296H186.934V62.0747H186.88C180.651 62.0747 179.13 60.8871 179.13 56.0237V32.1811C181.514 29.4401 183.793 27.5625 186.098 26.4419C188.01 25.5124 189.979 25.0796 192.296 25.0796C195.421 25.0796 197.792 26.0931 199.342 28.0912C200.867 30.0572 201.641 33.027 201.641 36.9181V56.0237C201.641 58.4187 201.031 59.9604 199.722 60.8753C198.536 61.7051 196.712 62.0747 193.81 62.0747H193.756V63.5296H213.775V62.0747H213.721C210.208 62.0747 208.324 61.6189 207.219 60.5009V60.5009ZM153.415 37.7366C155.65 37.7366 156.785 37.1442 156.785 33.9054C156.785 31.2196 155.713 28.7169 153.765 26.8586C151.76 24.9451 148.976 23.8909 145.928 23.8909C141.92 23.8909 138.384 25.2799 135.702 27.9085C133.224 30.3368 131.523 33.734 130.78 37.7366H153.415ZM131.732 59.3517C128.165 55.7595 126.201 50.805 126.201 45.401C126.201 39.2102 128.235 33.4682 131.928 29.2326C133.811 27.0727 136.055 25.3843 138.597 24.2143C141.275 22.9817 144.224 22.3566 147.36 22.3566C151.272 22.3566 154.852 23.586 157.44 25.8182C159.962 27.9936 161.351 30.9216 161.351 34.0639C161.351 35.9489 160.92 39.1121 158.033 39.1121H130.526C130.449 40.1053 130.37 41.1333 130.37 42.2298C130.37 47.6868 131.875 52.5813 134.607 56.0112C137.565 59.724 141.854 61.6862 147.01 61.6862C147.204 61.6862 147.4 61.6835 147.597 61.6776C153.929 61.5143 159.485 58.1448 163.243 52.1897L163.274 52.1415L164.236 52.8384L164.211 52.8807C159.31 60.9566 153.07 64.7187 144.572 64.7187C139.728 64.7187 135.168 62.8127 131.732 59.3517V59.3517ZM112.235 57.6091C112.235 60.4873 110.928 62.1538 104.245 62.1538H104.191V63.5295H124.608V62.1538H124.554C121.437 62.1538 119.599 61.8887 118.407 61.2684C117.132 60.6047 116.564 59.5006 116.564 57.6884V0H113.111V0.053568C113.111 1.60275 111.949 4.20134 104.165 4.20134H104.111V5.57696H112.235V57.6091ZM88.6595 57.6091C88.6595 60.4873 87.3518 62.1538 80.6696 62.1538H80.6158V63.5295H101.033V62.1538H100.979C97.8619 62.1538 96.0236 61.8887 94.831 61.2684C93.5567 60.6047 92.9884 59.5006 92.9884 57.6884V0H89.5356V0.053568C89.5356 1.60275 88.3732 4.20134 80.59 4.20134H80.5361V5.57696H88.6595V57.6091ZM46.5899 55.9444C46.5899 59.4606 49.6132 61.9161 53.9426 61.9161C56.3611 61.9161 58.9808 61.036 61.3185 59.4381C64.0405 57.5787 66.3454 54.7766 67.9856 51.3343V40.0856C51.5909 45.9695 46.5899 49.6791 46.5899 55.9444V55.9444ZM44.5773 31.2635C45.9329 28.7897 48.4439 26.5088 51.648 24.8396C54.6794 23.2615 58.1285 22.3562 61.1114 22.3562C68.441 22.3562 72.3152 26.8704 72.3152 35.4118V57.53C72.3152 58.633 72.5008 62.2333 74.8897 62.2333C75.931 62.2333 77.0676 61.4817 78.6783 60.1838L78.7283 60.1431L79.337 61.268L79.3052 61.2958C76.678 63.6309 74.5663 64.7188 72.659 64.7188C70.5576 64.7188 69.3876 63.9823 68.7462 62.2558C68.1208 60.5738 67.9901 57.95 67.9863 54.0031C63.6461 61.4121 58.7193 64.7188 52.0317 64.7188C49.3625 64.7188 46.9613 64.0289 45.2699 62.7754C43.5101 61.4726 42.5802 59.6583 42.5802 57.53C42.5802 53.5644 44.1925 50.5683 47.8078 47.8155C51.6367 44.9008 58.0483 42.0553 67.9863 38.8611V35.4118C67.9863 31.3872 67.3158 28.343 65.9941 26.3642C64.8273 24.6179 63.1849 23.7324 61.1114 23.7324C57.9675 23.7324 53.4891 25.1166 50.0083 31.7103C48.5989 34.3512 47.5651 35.7825 46.1379 35.7825C45.4383 35.7825 44.757 35.369 44.3599 34.7031C43.8077 33.7775 43.8868 32.524 44.5773 31.2635V31.2635ZM23.6175 63.5295H3.59884V62.0741H3.65266C6.61195 62.0741 8.37977 61.7243 9.56585 60.9047C10.8746 59.9999 11.4838 58.4491 11.4838 56.0236V15.3542C11.4838 12.9008 10.9963 11.4288 9.90166 10.5803C8.87702 9.78585 7.29755 9.46176 4.44912 9.46176H4.39531V7.92757H32.1649C32.7284 7.92757 33.2466 7.94043 33.704 7.95168C34.0802 7.96132 34.4359 7.96989 34.7529 7.96989C35.7436 7.96989 36.4357 7.88472 36.8264 7.46046C37.2101 7.0437 37.3247 6.29964 37.209 4.9733L37.2047 4.92777L38.5722 4.58761L44.2604 21.5735L42.8069 21.9993L42.788 21.9554C40.1425 15.7121 38.2934 12.9672 35.7221 11.4663C32.899 9.81852 29.0953 9.70014 23.1654 9.70014C17.9804 9.70014 15.8127 10.4854 15.8127 15.3542V33.772H27.546C31.3642 33.772 32.1111 30.8557 32.1111 25.8187V25.7652H33.4936V43.4726H32.1111V43.4185C32.1111 40.4005 31.8184 38.5133 31.1624 37.3C30.4854 36.0481 29.3617 35.4647 27.6262 35.4647H15.8127V56.0236C15.8127 60.8865 17.3341 62.0741 23.5637 62.0741H23.6175V63.5295Z" fill="#442500"/>
</svg>
