<?xml version="1.0" encoding="utf-8"?>
<!-- Generator: Adobe Illustrator 23.0.1, SVG Export Plug-In . SVG Version: 6.00 Build 0)  -->
<svg version="1.1" id="Layer_1" xmlns="http://www.w3.org/2000/svg" xmlns:xlink="http://www.w3.org/1999/xlink" x="0px" y="0px"
	 viewBox="0 0 72 72" style="enable-background:new 0 0 72 72;" xml:space="preserve">
<style type="text/css">
	.st0{clip-path:url(#SVGID_2_);}
</style>
<title>1Asset 3</title>
<g>
	<defs>
		<rect id="SVGID_1_" x="15.4" y="22.2" width="41.1" height="27.5"/>
	</defs>
	<clipPath id="SVGID_2_">
		<use xlink:href="#SVGID_1_"  style="overflow:visible;"/>
	</clipPath>
	<path class="st0" d="M49,27.4h-1V35h1V27.4z M21.2,35l3.5-7.9V35h1.1V25h-1.1l-3.9,8.4L16.9,25h-1.1v10h1.1v-7.9l3.5,7.9H21.2z
		 M29.9,28.2c-1.6,0-2.7,1.2-2.7,3c0,1.8,1.1,3,2.7,3c1.6,0,2.7-1.2,2.7-3C32.6,29.4,31.5,28.2,29.9,28.2 M29.9,35.1
		c-2.2,0-3.7-1.6-3.7-3.9c0-2.3,1.5-3.9,3.7-3.9c2.2,0,3.7,1.6,3.7,3.9C33.6,33.5,32.1,35.1,29.9,35.1 M37.1,35.1
		c-2,0-3.2-1-3.3-2.5l0-0.3h1l0,0.2c0.1,1.1,0.9,1.7,2.3,1.7c1.3,0,2.1-0.5,2.1-1.3c0-0.8-0.5-1.1-2.2-1.4c-1.8-0.3-2.9-0.8-2.9-2.1
		c0-1.2,1.1-2,2.8-2c1.7,0,2.8,0.8,3,2.2l0,0.3h-1l0-0.2c-0.2-0.9-0.8-1.4-2-1.4c-1.2,0-1.8,0.4-1.8,1.1c0,0.6,0.6,1,2.2,1.2
		c1.8,0.3,2.9,0.8,2.9,2.3C40.2,34.2,39,35.1,37.1,35.1 M37.1,35.1c-2,0-3.2-1-3.3-2.5l0-0.3h1l0,0.2c0.1,1.1,0.9,1.7,2.3,1.7
		c1.3,0,2.1-0.5,2.1-1.3c0-0.8-0.5-1.1-2.2-1.4c-1.8-0.3-2.9-0.8-2.9-2.1c0-1.2,1.1-2,2.8-2c1.7,0,2.8,0.8,3,2.2l0.1,0.3h-1l0-0.2
		c-0.2-0.9-0.8-1.4-2-1.4c-1.2,0-1.8,0.4-1.8,1.1c0,0.6,0.6,1,2.2,1.2c1.8,0.3,2.9,0.8,2.9,2.3C40.2,34.2,39,35.1,37.1,35.1
		 M45.8,31.1c-0.4,0.2-1,0.3-2,0.4c-2,0.2-2.3,0.6-2.3,1.5c0,0.9,0.9,1.3,1.7,1.3c1.5,0,2.6-0.8,2.6-2V31.1z M47.7,34.1l0,0.8
		c0,0-0.3,0.2-0.8,0.2c-0.7,0-1.1-0.3-1.2-0.9c-0.4,0.5-1.2,1-2.6,1c-1.6,0-2.7-0.9-2.7-2.2c0-1.8,1.6-2.2,3.2-2.3
		c2-0.2,2.1-0.4,2.1-0.8v-0.1c0-1-0.6-1.5-1.8-1.5c-1.4,0-2,0.5-2.1,1.5l0,0.2h-1l0-0.3c0.1-1.5,1.2-2.4,3.1-2.4
		c1.8,0,2.8,0.8,2.8,2.4v4.1c0,0.3,0.1,0.4,0.4,0.4C47.4,34.2,47.7,34.1,47.7,34.1 M56.6,32.4l0-0.3h-1l0,0.2
		c-0.2,1.2-1.1,1.9-2.4,1.9c-1.6,0-2.7-1.2-2.7-3c0-1.8,1-3,2.7-3c1.3,0,2.1,0.6,2.3,1.6l0,0.1h1l0-0.3c-0.3-1.5-1.5-2.4-3.3-2.4
		c-2.2,0-3.7,1.6-3.7,3.9c0,2.3,1.5,3.9,3.7,3.9C55.1,35.1,56.3,34.1,56.6,32.4 M26.9,46v1.5h0.9v-5.3h-4.6v0.9h3.6v0.2
		c0,2.1-1.4,3.4-3.5,3.4c-2,0-4-1.1-4-4.3c0-3.2,2.2-4.3,4-4.3c1.8,0,3,0.8,3.3,2.3l0,0.2l1,0l-0.1-0.3c-0.4-2-2-3.1-4.3-3.1
		c-3.1,0-5.1,2.1-5.1,5.3c0,3.2,2,5.2,5.1,5.2C24.9,47.7,26.2,47,26.9,46 M29.7,47.5v-4.7c0-0.8,0.7-2,2.2-2c0.3,0,0.6,0,0.6,0V40
		c0,0-0.3,0-0.5,0c-1.2,0-1.9,0.5-2.3,1V40h-1v7.5H29.7z M44.9,46.7v0.8h1V40h-1v4.9c0,1.1-1.2,1.8-2.3,1.8c-1.1,0-1.7-0.5-1.7-1.5
		l0-5.2h-1v5.3c0,1.5,1,2.4,2.7,2.4C43.8,47.6,44.5,47.1,44.9,46.7 M50.3,40.7c-1.5,0-2.6,1.2-2.6,3c0,1.8,1,3,2.6,3
		c1.5,0,2.5-1.2,2.5-3C52.8,41.9,51.8,40.7,50.3,40.7 M46.7,49.8V40h1v1.1c0.6-0.8,1.6-1.2,2.7-1.2c2.4,0,3.4,2,3.4,3.9
		c0,2.3-1.4,3.9-3.5,3.9c-1.1,0-2-0.4-2.6-1.1v3.3H46.7z M49,25h-1v1.3h1V25z M35.7,40.7c-1.6,0-2.7,1.2-2.7,3c0,1.8,1.1,3,2.7,3
		c1.6,0,2.7-1.2,2.7-3C38.4,41.9,37.3,40.7,35.7,40.7 M35.7,47.6c-2.2,0-3.7-1.6-3.7-3.9c0-2.3,1.5-3.9,3.7-3.9
		c2.2,0,3.7,1.6,3.7,3.9C39.4,46,37.9,47.6,35.7,47.6"/>
</g>
<polygon points="5.7,66.3 15.7,66.3 15.7,65.2 6.8,65.2 6.8,56.3 5.7,56.3 "/>
<polygon points="5.7,5.7 5.7,15.7 6.8,15.7 6.8,6.8 15.7,6.8 15.7,5.7 "/>
<polygon points="66.3,66.3 66.3,56.3 65.2,56.3 65.2,65.2 56.3,65.2 56.3,66.3 "/>
<polygon points="66.3,5.7 56.3,5.7 56.3,6.8 65.2,6.8 65.2,15.7 66.3,15.7 "/>
</svg>
