<!-- Generator: Adobe Illustrator 23.0.1, SVG Export Plug-In  -->
<svg version="1.1" 
	xmlns="http://www.w3.org/2000/svg" 
	xmlns:xlink="http://www.w3.org/1999/xlink" x="0px" y="0px" viewBox="0 0 41.2 27.5" xml:space="preserve">
	<style type="text/css">
	.st0{fill:none;}
	</style>
	<defs>
	</defs>
	<path d="M33.6,5.2h-1v7.5h1V5.2z M5.8,12.7l3.5-7.9v7.9h1.1v-10H9.2l-3.9,8.4L1.5,2.7H0.3v10h1.1V4.8l3.5,7.9H5.8z M14.5,6
	c-1.6,0-2.7,1.2-2.7,3c0,1.8,1.1,3,2.7,3c1.6,0,2.7-1.2,2.7-3C17.2,7.2,16.1,6,14.5,6 M14.5,12.9c-2.2,0-3.7-1.6-3.7-3.9
	c0-2.3,1.5-3.9,3.7-3.9c2.2,0,3.7,1.6,3.7,3.9C18.2,11.3,16.7,12.9,14.5,12.9 M21.7,12.9c-2,0-3.2-1-3.3-2.5l0-0.3h1l0,0.2
	c0.1,1.1,0.9,1.7,2.3,1.7c1.3,0,2.1-0.5,2.1-1.3c0-0.8-0.5-1.1-2.2-1.4c-1.8-0.3-2.9-0.8-2.9-2.1c0-1.2,1.1-2,2.8-2
	c1.7,0,2.8,0.8,3,2.2l0,0.3h-1l0-0.2c-0.2-0.9-0.8-1.4-2-1.4c-1.2,0-1.8,0.4-1.8,1.1c0,0.6,0.6,1,2.2,1.2c1.8,0.3,2.9,0.8,2.9,2.3
	C24.7,12,23.5,12.9,21.7,12.9 M21.7,12.9c-2,0-3.2-1-3.3-2.5l0-0.3h1l0,0.2c0.1,1.1,0.9,1.7,2.3,1.7c1.3,0,2.1-0.5,2.1-1.3
	c0-0.8-0.5-1.1-2.2-1.4c-1.8-0.3-2.9-0.8-2.9-2.1c0-1.2,1.1-2,2.8-2c1.7,0,2.8,0.8,3,2.2l0.1,0.3h-1l0-0.2c-0.2-0.9-0.8-1.4-2-1.4
	c-1.2,0-1.8,0.4-1.8,1.1c0,0.6,0.6,1,2.2,1.2c1.8,0.3,2.9,0.8,2.9,2.3C24.7,12,23.5,12.9,21.7,12.9 M30.3,8.8c-0.4,0.2-1,0.3-2,0.4
	c-2,0.2-2.3,0.6-2.3,1.5c0,0.9,0.9,1.3,1.7,1.3c1.5,0,2.6-0.8,2.6-2V8.8z M32.3,11.8l0,0.8c0,0-0.3,0.2-0.8,0.2
	c-0.7,0-1.1-0.3-1.2-0.9c-0.4,0.5-1.2,1-2.6,1c-1.6,0-2.7-0.9-2.7-2.2c0-1.8,1.6-2.2,3.2-2.3c2-0.2,2.1-0.4,2.1-0.8V7.4
	c0-1-0.6-1.5-1.8-1.5c-1.4,0-2,0.5-2.1,1.5l0,0.2h-1l0-0.3c0.1-1.5,1.2-2.4,3.1-2.4c1.8,0,2.8,0.8,2.8,2.4v4.1
	c0,0.3,0.1,0.4,0.4,0.4C31.9,11.9,32.3,11.8,32.3,11.8 M41.1,10.1l0-0.3h-1l0,0.2C40,11.3,39.1,12,37.7,12c-1.6,0-2.7-1.2-2.7-3
	c0-1.8,1-3,2.7-3c1.3,0,2.1,0.6,2.3,1.6l0,0.1h1l0-0.3c-0.3-1.5-1.5-2.4-3.3-2.4c-2.2,0-3.7,1.6-3.7,3.9c0,2.3,1.5,3.9,3.7,3.9
	C39.6,12.9,40.9,11.8,41.1,10.1 M11.5,23.7v1.5h0.9v-5.3H7.8v0.9h3.6v0.2c0,2.1-1.4,3.4-3.5,3.4c-2,0-4-1.1-4-4.3
	c0-3.2,2.2-4.3,4-4.3c1.8,0,3,0.8,3.3,2.3l0,0.2l1,0L12.3,18c-0.4-2-2-3.1-4.3-3.1c-3.1,0-5.1,2.1-5.1,5.3c0,3.2,2,5.2,5.1,5.2
	C9.5,25.4,10.8,24.8,11.5,23.7 M14.3,25.3v-4.7c0-0.8,0.7-2,2.2-2c0.3,0,0.6,0,0.6,0v-0.9c0,0-0.3,0-0.5,0c-1.2,0-1.9,0.5-2.3,1
	v-0.9h-1v7.5H14.3z M29.5,24.5v0.8h1v-7.5h-1v4.9c0,1.1-1.2,1.8-2.3,1.8c-1.1,0-1.7-0.5-1.7-1.5l0-5.2h-1V23c0,1.5,1,2.4,2.7,2.4
	C28.3,25.4,29.1,24.9,29.5,24.5 M34.8,18.5c-1.5,0-2.6,1.2-2.6,3c0,1.8,1,3,2.6,3c1.5,0,2.5-1.2,2.5-3
	C37.3,19.6,36.4,18.5,34.8,18.5 M31.3,27.5v-9.8h1v1.1c0.6-0.8,1.6-1.2,2.7-1.2c2.4,0,3.4,2,3.4,3.9c0,2.3-1.4,3.9-3.5,3.9
	c-1.1,0-2-0.4-2.6-1.1v3.3H31.3z M33.6,2.7h-1V4h1V2.7z M20.3,18.5c-1.6,0-2.7,1.2-2.7,3c0,1.8,1.1,3,2.7,3c1.6,0,2.7-1.2,2.7-3
	C23,19.7,21.9,18.5,20.3,18.5 M20.3,25.4c-2.2,0-3.7-1.6-3.7-3.9c0-2.3,1.5-3.9,3.7-3.9c2.2,0,3.7,1.6,3.7,3.9
	C24,23.8,22.5,25.4,20.3,25.4"/>
	<rect class="st0"/>
</svg>
