<?xml version="1.0" encoding="utf-8"?>
<!-- Generator: Adobe Illustrator 23.0.1, SVG Export Plug-In . SVG Version: 6.00 Build 0)  -->
<svg version="1.1" id="Layer_1" xmlns="http://www.w3.org/2000/svg" xmlns:xlink="http://www.w3.org/1999/xlink" x="0px" y="0px"
	 viewBox="0 0 72 72" style="enable-background:new 0 0 72 72;" xml:space="preserve">
<style type="text/css">
	.st0{fill:#FFFFFF;}
</style>
<g>
	<path class="st0" d="M35.7,49.8c-2.6,0-4.4-1.9-4.4-4.7c0-2.7,1.8-4.6,4.4-4.6c2.6,0,4.4,1.9,4.4,4.6
		C40.1,47.9,38.3,49.8,35.7,49.8z M35.7,41.6c-1.9,0-3.2,1.5-3.2,3.6c0,2.1,1.3,3.6,3.2,3.6c1.9,0,3.2-1.5,3.2-3.6
		C38.9,43.1,37.6,41.6,35.7,41.6z M51.5,22.9h-1.2v1.6h1.2V22.9z M48.7,52.4V40.7h1.2V42c0.7-0.9,1.9-1.5,3.2-1.5
		c2.8,0,4.1,2.3,4.1,4.6c0,2.7-1.7,4.6-4.1,4.6c-1.3,0-2.4-0.5-3.1-1.4v3.9L48.7,52.4L48.7,52.4z M53,41.6c-1.8,0-3.1,1.4-3.1,3.6
		c0,2.1,1.2,3.5,3.1,3.5c1.8,0,2.9-1.4,2.9-3.6C55.9,43,54.8,41.6,53,41.6z M46.6,48.8v0.9h1.2v-8.9h-1.2v5.8c0,1.4-1.4,2.2-2.7,2.2
		c-1.4,0-2.1-0.6-2.1-1.8l0-6.2h-1.2V47c0,1.7,1.2,2.8,3.2,2.8C45.3,49.8,46.1,49.3,46.6,48.8z M28.5,49.7v-5.5c0-1,0.8-2.4,2.6-2.4
		c0.3,0,0.7,0,0.7,0v-1.1c0,0-0.4,0-0.6,0c-1.4,0-2.3,0.6-2.7,1.1v-1.1h-1.2v8.9L28.5,49.7L28.5,49.7z M25.2,47.9v1.8h1.1v-6.3h-5.5
		v1.1h4.3v0.3c0,2.5-1.6,4-4.1,4c-2.3,0-4.8-1.3-4.8-5.1c0-3.8,2.6-5.1,4.8-5.1c2.1,0,3.6,1,3.9,2.7l0,0.3l1.2,0l-0.1-0.4
		c-0.5-2.3-2.4-3.7-5.1-3.7c-3.7,0-6.1,2.5-6.1,6.3c0,3.8,2.4,6.2,6.1,6.2C22.8,49.9,24.4,49.1,25.2,47.9z M60.5,31.7l0-0.3h-1.2
		l0,0.3c-0.2,1.4-1.3,2.2-2.9,2.2c-1.9,0-3.2-1.4-3.2-3.6c0-2.2,1.2-3.5,3.2-3.5c1.5,0,2.5,0.7,2.8,1.9l0,0.2h1.2l0-0.3
		c-0.4-1.8-1.8-2.9-4-2.9c-2.6,0-4.4,1.9-4.4,4.6c0,2.8,1.7,4.7,4.4,4.7C58.7,34.9,60.2,33.7,60.5,31.7z M50,33.7l0,0.9
		c0,0-0.3,0.3-1,0.3c-0.8,0-1.3-0.4-1.4-1.1c-0.5,0.5-1.5,1.2-3.1,1.2c-1.9,0-3.2-1-3.2-2.6c0-2.2,1.9-2.6,3.8-2.8
		c2.3-0.2,2.5-0.4,2.5-1v-0.1c0-1.2-0.7-1.8-2.2-1.8c-1.6,0-2.4,0.6-2.5,1.8l0,0.3h-1.2l0-0.3c0.2-1.8,1.5-2.8,3.7-2.8
		c2.2,0,3.3,1,3.3,2.9c0,0,0,4.6,0,4.8c0,0.3,0.1,0.5,0.5,0.5C49.5,33.8,50,33.7,50,33.7z M47.6,30.2c-0.5,0.2-1.2,0.4-2.3,0.5
		c-2.3,0.3-2.8,0.8-2.8,1.7c0,1.1,1.1,1.5,2,1.5c1.8,0,3.1-1,3.1-2.4L47.6,30.2L47.6,30.2z M37.3,34.9c-2.3,0-3.8-1.1-4-3l0-0.3h1.2
		l0,0.3c0.1,1.3,1.1,2,2.8,2c1.5,0,2.5-0.6,2.5-1.6c0-0.9-0.6-1.3-2.6-1.7c-2.1-0.3-3.5-0.9-3.5-2.5c0-1.5,1.3-2.4,3.3-2.4
		c2.1,0,3.3,0.9,3.6,2.7l0.1,0.4h-1.2l0-0.3c-0.2-1.1-1-1.7-2.4-1.7c-1.4,0-2.2,0.5-2.2,1.4c0,0.8,0.7,1.1,2.6,1.5l0,0
		c2.2,0.4,3.5,0.9,3.5,2.7C41,33.9,39.5,34.9,37.3,34.9z M37.3,34.9c-2.3,0-3.8-1.1-4-3l0-0.3h1.2l0,0.3c0.1,1.3,1.1,2,2.8,2
		c1.5,0,2.5-0.6,2.5-1.6c0-0.9-0.6-1.3-2.6-1.7c-2.1-0.3-3.5-0.9-3.5-2.5c0-1.5,1.3-2.4,3.3-2.4c2.1,0,3.3,0.9,3.6,2.7l0.1,0.4h-1.2
		l0-0.3c-0.2-1.1-1-1.7-2.4-1.7c-1.4,0-2.2,0.5-2.2,1.4c0,0.8,0.7,1.1,2.6,1.5l0,0c2.2,0.4,3.5,0.9,3.5,2.7
		C41,33.9,39.5,34.9,37.3,34.9z M28.8,34.9c-2.6,0-4.4-1.9-4.4-4.7c0-2.7,1.8-4.6,4.4-4.6s4.4,1.9,4.4,4.6
		C33.2,33,31.4,34.9,28.8,34.9z M28.8,26.7c-1.9,0-3.2,1.5-3.2,3.6c0,2.1,1.3,3.6,3.2,3.6c1.9,0,3.2-1.5,3.2-3.6
		C32,28.2,30.7,26.7,28.8,26.7z M18.4,34.8l4.2-9.4v9.4h1.3V22.9h-1.4l-4.6,10l-4.6-10h-1.4v11.9h1.3v-9.4l4.2,9.4L18.4,34.8
		L18.4,34.8z M72,0H60.1v1.3h10.6v10.6H72L72,0L72,0z M72,72V60.1h-1.3v10.6H60.1V72L72,72L72,72z M0,0v11.9h1.3V1.3h10.6V0H0z
		 M0,72h11.9v-1.3H1.3V60.1H0V72z M51.5,25.8h-1.2v8.9h1.2L51.5,25.8L51.5,25.8z"/>
</g>
</svg>
